<?xml version="1.0" encoding="UTF-8"?>
<svg id="_圖層_1" xmlns="http://www.w3.org/2000/svg" version="1.1" viewBox="0 0 1500 950">
  <!-- Generator: Adobe Illustrator 29.0.0, SVG Export Plug-In . SVG Version: 2.1.0 Build 186)  -->
  <defs>
    <style>
      .st0 {
        fill: #7faf4a;
      }

      .st1 {
        stroke: #17362e;
        stroke-miterlimit: 10;
        stroke-width: 1.7px;
      }

      .st1, .st2 {
        fill: #17362e;
      }

      .st3 {
        fill: #fffffe;
      }

      .st4 {
        fill: #fff;
      }
    </style>
  </defs>
  <g>
    <g>
      <g>
        <path class="st2" d="M1132.2,310.8c0,1.6-.1,3.2-.1,4.9,0,55.8,45.2,101,101,101s101-45.2,101-101,0-3.3-.1-4.9h-201.8Z"/>
        <g>
          <path class="st4" d="M1236,334.9l-.3,5.5c2.3.6,4.1,3.5,4.1,7,0,2-.6,3.9-1.6,5.1-.1.2-.4,0-.4-.1v-5.2c0-.3-.2-.5-.5-.5h-.3c-.3,0-.5.2-.5.5v6c0,.2-.2.4-.4.5h0c-.4.1-.8-.1-.8-.5v-5.9c0-.3-.2-.5-.5-.5h-.2c-.3,0-.6.2-.6.5v6c0,.4-.4.6-.7.5-.2,0-.3-.3-.3-.5v-5.9c0-.4-.3-.6-.6-.7-.4,0-.7.3-.7.6v5.2c0,.2-.3.3-.4.1-1.1-1.3-1.7-3.2-1.7-5.4,0-3.2,1.6-6,3.7-6.8l-.2-5.6c-4.8.8-8.6,5-8.6,10,0,9.5,10.2,17.3,10.2,17.3,0,0,10.2-7.8,10.2-17.3s-3.9-9.4-8.8-10.1h0Z"/>
          <g>
            <path class="st4" d="M1183.3,362.3h0c-4.7,0-8.9-1.8-11.8-5-.8-.8-1.1-1.9-.8-3,.2-1.2,1-2.1,2.1-2.7h.2c1.3-.8,2.8-.7,4.1,0,1.2.7,1.8,1.9,1.8,3.2,0,3.6,1.6,5.6,4.4,5.6s5.8-1.9,5.8-4.2-.9-2.6-2.3-3.4l-10.4-5.7c-3.4-1.8-5.5-4.9-5.5-8.2,0-5.4,5.8-9.9,13-9.9s8.4,1.8,11.1,5.1c.7.9,1,2,.8,3.2-.2,1.1-1,2.1-2,2.7h-.2c-1.2.7-2.5.7-3.7,0-1.2-.7-1.9-2-1.9-3.4,0-2.1-.4-3.7-1.4-4.7-.7-.7-1.6-1.1-2.8-1.1-3.2,0-5.9,2.1-5.9,4.6s1,3,2.6,3.9l11.1,6c3.3,1.8,5.2,4.5,5.2,7.4,0,5.2-6.1,9.4-13.6,9.4h0Z"/>
            <path class="st4" d="M1223,350.6c0,5.7-2.5,11.8-9.4,11.8s-4.1-1.1-5.5-2.9h0s0,0,0,0c0,0,0,0,0,0,0,0,0,0,0,0,0,0,0,0-.1,0h0s0,0,0,0c0,0,0,0,0,0s0,0,0,0c0,0,0,0,0,0h0s0,0,0,0,0,0,0,0c0,0,0,0,0,0,0,0,0,0,0,.1h0v20.9c0,.7.4,1.2,1,1.4v1.8h-11v-1.8c.6-.2,1-.8,1-1.4h0v-36.6c0-.7-.4-1.2-1-1.4v-1.9h.6c0-.1,9.3-1.8,9.3-1.8v2.5h0c0,0,0,.1,0,.1,0,0,0,0,0,0,0,0,0,0,0,0s0,0,0,0h0s0,0,0,0c0,0,0,0,0,0,0,0,.1,0,.2,0s.1,0,.2,0c0,0,0,0,0,0,0,0,0,0,.1,0h0c1.4-1.8,3.5-2.9,5.5-2.9,6.9,0,9.4,6.1,9.4,11.8h0ZM1214.1,350.6c0-4.2-1.3-6.7-3.6-6.7s-3.3,1.5-3.3,3.3v6.7c0,1.8,1.5,3.3,3.3,3.3s3.6-2.5,3.6-6.7h0Z"/>
            <path class="st4" d="M1269.1,342.3c0,1.6-.8,3.4-3,3.8-1.3.2-2.5-.2-3.4-1.2-.6-.7-1.5-1.1-2.5-1.1-1.8,0-3.3,1.5-3.3,3.3v11.4c0,.7.4,1.2,1,1.4v1.8h-11v-1.8c.6-.2,1-.8,1-1.4v-14.6c0-.7-.4-1.2-1-1.4v-1.9h.4c0,0,2.9-.6,2.9-.6l6.7-1.2v3.6s0,0,0,0c0,0,0,0,0,0,0,0,0,0,0,0s0,0,0,0,0,0,0,0c0,0,0,0,0,0,0,0,0,0,0,0,0,0,0,0,0,0,0,0,.1,0,.2,0s.2,0,.2,0c0,0,0,0,0,0,0,0,0,0,.1-.1,0,0,0,0,0,0,1.7-2.5,4.2-4,7.1-4s.6,0,.9,0c2.2.2,3.3,1.9,3.3,3.5h0Z"/>
            <path class="st4" d="M1295.7,360.1v1.7h-6.5c-3.5,0-5-2.6-5.5-3.7,0,0,0,0,0,0h0l-2.1-4.9h0c-.2-.4-.6-.7-1.1-.7s-.5,0-.8.2c0,0,0,0,0,0l-.6.6h0c0,0,0,.1,0,.2,0,0,0,.1,0,.2v4.9c0,.7.4,1.2,1,1.4v1.8h-11v-1.8c.6-.2,1-.8,1-1.4v-24.9h0c0-.7-.4-1.2-1-1.4v-1.9l10-1.8v21.3s0,0,0,0c0,0,0,0,0,.1,0,0,0,0,0,.1,0,0,0,0,0,0h0c0,0,0,0,.2.1s.1,0,.2,0,.1,0,.2,0c0,0,0,0,0,0,0,0,0,0,0,0h0l7.4-7.2h.1c.5-.7.5-1.1.4-1.4,0,0-.1-.2-.3-.4v-1.9h7.2v1.8h-1.8c-.7,0-1.7.5-2.4,1.1h0c0,0,0,0,0,0l-3.4,3.3s0,0,0,0c0,0,0,0,0,0h0s0,0,0,0c0,0,0,0,0,.1s0,0,0,0,0,0,0,0c0,0,0,0,0,.1,0,0,0,0,0,0h0s0,0,.1,0c0,0,0,0,0,0,.9.4,1.7,1.1,2.1,2.1l4.5,10.3h0c.3.8,1.2,1.3,1.9,1.3h0,0Z"/>
            <path class="st4" d="M1223.1,380c0,1.2-.8,2.3-2.2,3.1-1.4.8-3.1,1.2-5,1.1-2.2-.1-4.2-1-5.5-2.2-.5-.5-.6-1.1-.4-1.8.2-.6.7-1.1,1.4-1.3h.1c.5-.1,1.1,0,1.5.3.4.3.7.9.8,1.4.1,2,1.3,2.5,2.2,2.5.6,0,1.2-.1,1.7-.4.5-.3.8-.7.8-1.2,0-.6-.3-1.2-1-1.5l-4.9-2.4c-1.9-1-3-2.4-2.9-3.9.1-2.5,3.3-4.3,7.2-4.1,2,.1,3.9.8,5.2,1.9.5.5.8,1.2.6,1.9-.2.7-.7,1.2-1.4,1.4h-.2c-.5.2-1,0-1.5-.3-.4-.3-.7-.8-.8-1.4-.1-1.5-.9-2.4-2-2.4-1.3,0-2.3.6-2.4,1.5,0,.5.3,1,.8,1.4l4.7,2.3c2.1,1,3.3,2.6,3.2,4.2h0Z"/>
            <path class="st4" d="M1239.9,382.9v1.1h-6.9v-1.1c.4-.1.7-.5.7-.9v-7.1c0-1.1-.9-2.1-2.1-2.1s-2.1.9-2.1,2.1v7.1c0,.4.3.8.7.9v1.1h-6.9v-1.1s0,0,.1,0c0,0,.1.1.2.1.2,0,.3-.1.3-.3v-16.3c0-.4-.3-.8-.7-.9v-1.2l6.2-1.1v8.8h0s0,0,0,0c0,0,0,0,0,0,0,0,0,0,0,0s0,0,0,0c0,0,0,0,0,0s0,0,0,0c0,0,0,0,0,0,0,0,0,0,.1,0s0,0,.1,0c0,0,0,0,0,0,0,0,0,0,0,0,0,0,0,0,0,0,1-1.6,2.7-2.5,4.4-2.5,2.8,0,4.8,1.8,4.8,4.2v8.2c0,.4.3.8.7.9h0Z"/>
            <path class="st4" d="M1255.5,382.9v1.1h-3.7c-.9,0-1.6-.3-2.1-.9,0,0,0,0,0,0,0,0,0,0,0,0s0,0,0,0c0,0,0,0,0,0h-.2s0,0,0,0c-2.5,1.1-6,1.8-8,.6-.9-.6-1.3-1.5-1.3-2.7,0-3.4,5.6-5.1,8.9-5.9,0,0,0,0,0,0,0,0,0,0,0,0,0,0,0,0,0,0s0,0,0,0c0,0,0,0,0,0,0,0,0,0,0,0,0,0,0,0,0,0h0v-2.4c0-1.2-.5-1.8-1.5-1.8s-.9.2-1.2.5c-.3.3-.4.8-.3,1.4,0,.1,0,.2,0,.4,0,1-.7,1.9-1.7,2.2-1.4.5-2.5-.3-2.9-1.3-.4-1-.3-2.3.9-3,1.1-.7,3.3-1.2,5.1-1.2,3.5,0,7.1.6,7.1,4.9v7.5c0,.4.3.8.7.9h0ZM1249.3,381.6v-5.3s0,0,0,0c0,0,0,0,0,0,0,0,0,0,0,0,0,0,0,0,0,0s0,0,0,0c0,0,0,0,0,0,0,0,0,0,0,0h0s0,0,0,0,0,0,0,0c-1,.5-1.8,1-2.3,1.7-.5.7-.8,1.5-.8,2.4s.3,1.5.8,1.8c.3.2.7.3,1.1.3s.9-.1,1.5-.3h0s0,0,0,0c0,0,0,0,0,0,0,0,0,0,0,0s0,0,0,0c0,0,0,0,0,0h0c0,0,0,0,0,0Z"/>
            <path class="st4" d="M1270.1,371.8c0,1-.5,2.1-1.9,2.4-.8.1-1.6-.1-2.1-.7-.4-.4-.9-.7-1.5-.7-1.2,0-2.1.9-2.1,2.1v7.1c0,.4.3.8.7.9v1.1h-6.9v-1.1c.4-.1.6-.5.7-.9v-9.2c0-.4-.3-.8-.7-.9v-1.2h.2s1.8-.4,1.8-.4l4.2-.7v2.3h0s0,0,0,0c0,0,0,0,0,0,0,0,0,0,0,0s0,0,0,0c0,0,0,0,0,0s0,0,0,0c0,0,0,0,0,0,0,0,0,0,.1,0s0,0,.1,0c0,0,0,0,0,0,0,0,0,0,0,0,0,0,0,0,0,0,1-1.6,2.7-2.5,4.4-2.5s.4,0,.6,0c1.4.1,2.1,1.2,2.1,2.2h0Z"/>
            <path class="st4" d="M1281.9,380l1.2.6c-1.5,2.6-4.3,4-7.3,3.7-3.3-.4-6.1-3.1-6.4-6.5-.2-2.2.4-4.2,1.8-5.8,1.4-1.6,3.4-2.4,5.5-2.4,3.6,0,6.5,2,6.5,4.4s-2.9,4.4-6.5,4.4-.8,0-1.2,0h0s0,0,0,0h0s0,0,0,0c0,0,0,0,0,0,0,0,0,0,0,0,0,0,0,0,0,0s0,0,0,0,0,0,0,0h0c0,0,0,.1,0,.1h0c1.1,2.6,3.6,2.4,3.9,2.4,1.1,0,2.1-.4,2.8-1.1h0ZM1275.1,377.9h0c.9-.1,4-.7,4-3.9h0c0-2.1-.7-3.4-1.8-3.4h0s-.7,0-1.3.5c-.9.8-1.3,2.4-1.3,4.7s0,1.2.2,1.7h0s0,0,0,0c0,0,0,0,0,0,0,0,0,0,0,0,0,0,0,0,0,0,0,0,0,0,0,0,0,0,0,0,0,0,0,0,0,0,.1,0h0Z"/>
          </g>
        </g>
        <rect class="st2" x="1205.4" y="407.2" width="57.5" height="14.7" rx="2.5" ry="2.5"/>
      </g>
      <g>
        <path class="st0" d="M1364.2,237.9c3.1-2.5,6.7-4.2,8.3-8,4.3-9.7-5.3-19.5-15.1-15.8-4.3,1.6-5.6,5.5-8.5,8.6-.1-15.6-21.5-16.5-22.7-.8l2.6,15.7c.2,1.4,1,2.6,2.2,3.4,6.1,3.7,11.2,8.9,14.9,14.9.7,1.2,1.9,2,3.3,2.2,8,1.2,19.2,5.6,24.7-1.5,6.4-8.1,0-18.6-9.7-18.7h0Z"/>
        <path class="st0" d="M1323.2,242.1c-15.3-6.6-27.5-3.2-37.9,9.2-2.4,2.9-4.7,5.9-7,8.9-.7,1-.4,2.3.7,2.9,5.7,3,11.3,6.2,16.8,9.6,1.5.9,2,2.8,1.2,4.4-.8,1.5-2.9,2-4.4,1.1-1.9-1.2-3.9-2.3-5.8-3.5-3.9-2.3-7.9-4.5-11.9-6.6-.9-.5-2-.2-2.6.6-1.3,1.8-2.5,3.6-3.8,5.5-.7,1-.3,2.3.7,2.8,3.3,1.9,6.5,3.7,9.8,5.7,1.5.9,2,2.8,1.2,4.4-.8,1.5-2.9,2-4.4,1.1-1.9-1.2-3.9-2.3-5.8-3.5-1.5-.9-3.1-1.8-4.6-2.6-.9-.5-2.1-.2-2.6.6l-2.6,4h0c-1.6,2.5-4.1,6.5-4.6,7.4-1.9,3.2-4,6.6-6,10.1h82.6c.2,0,.4-.1.6-.2l4.9-4.2c.2,0,2.7-2.3,3-2.6,17.3-17.6,2.5-46.7-17.2-55.2h0Z"/>
      </g>
      <path class="st0" d="M1220.2,253.5c-4.9.8-9.6,2.5-14.5,3.2,1.4-13.2,9.1-24,19.6-31.5,2.3-1.6,2.9-4.7,1.4-7.1h0c-1.6-2.7-5.3-3.4-7.9-1.6-5,3.6-9.5,7.9-13.5,12.7-3.8-14.7-17.9-23.2-32.6-23.7l-9.2-.2c-1.5,0-2.7,1.1-2.7,2.6-.1,9.9.8,20.1,6.2,28.6,6.1,9.6,17.1,14.6,28.2,15.1l-.7,5.5c-14.1-3.7-27.9-7.2-41.4.6-17.3,10.1-21.4,28.1-20.3,46.8h109.2l19.5-31.6c-8.2-13.8-23.2-22.1-41.5-19.3h0Z"/>
    </g>
    <g>
      <circle class="st4" cx="564.6" cy="321.6" r="101.1"/>
      <path class="st1" d="M613.7,313.3c10.2-6.5,12.5-15.1,12.5-15.1,1.6-5.1.8-5.2.8-5.2-1.1-1.2-5.3,3.1-5.3,3.1-2,2.1-2.8.9-2.8.9-1.2-1.4.8-2.9.8-2.9,4.5-4.2,6.1-6,6.1-6,1.3-1.4.7-1.8.7-1.8-.8-1.2-9.3,3.8-9.3,3.8-1.9,1.1-2.5-.2-2.5-.2-.9-1.5.7-2.3.7-2.3,4.9-3.4,7.2-5.4,7.2-5.4.8-.7.4-1.2.4-1.2-.4-.8-1.5-.5-1.5-.5-1.4,0-9,3.1-9,3.1-2.4.9-2.6-.7-2.6-.7-.4-1.2,1-1.7,1-1.7l4.9-2.1c1.5-.6,1.2-1.5,1.2-1.5-.4-1.3-6.8-1.8-6.8-1.8-7.6-.3-14.5,3.2-18.7,5.9h0s-.4.2-1,.7c-1.8,1.3-2.9,2.2-2.9,2.2-1.1,1-1.7,1.6-2.6,2.7-3.2,3.5-6.9,8.7-9.2,15.8-.2.4-.3.6-.3.6l-.3,1.4c0,.3-.2.6-.2.9-.5,2.1-1.9,3.9-3.8,5l-63.9,36.8c-4.1,2.4-5.4,7.7-2.9,11.7h0c2.6,4.1,8.1,5.2,12,2.3l59-42.6c2.1-1.5,4.7-1.9,7.2-1.2,7.5,2.2,16.7.5,21.8-.9,1.2-.3,2.2-.6,3.2-.9.3-.1.5-.2.5-.2h0c3.9-1.4,5.9-2.7,5.9-2.7h0ZM508.8,356.9c-.6-.9-.3-2.1.6-2.6s2.1-.3,2.6.6c.6.9.3,2.1-.6,2.6s-2.1.3-2.6-.6h0Z"/>
    </g>
    <path class="st4" d="M369.8,323.6v-7.5h41.5v7.5h-41.5ZM386.1,339.6v-40h8.7v40h-8.7Z"/>
    <circle class="st4" cx="903.1" cy="321.6" r="101.1"/>
    <path class="st4" d="M712.9,323.6v-7.5h41.5v7.5h-41.5ZM729.2,339.6v-40h8.7v40h-8.7Z"/>
    <g>
      <circle class="st4" cx="216.5" cy="321.6" r="101.1"/>
      <path class="st1" d="M221.6,268.8c-5.1-1-11.3.2-11.3.2-18.7,3-33,19.2-33,38.7,0,36.9,39.2,67,39.2,67,0,0,39.2-30.1,39.2-67s-14.9-36.4-34.2-38.9h0ZM216.5,322.4c-8.1,0-14.7-6.6-14.7-14.7s6.6-14.7,14.7-14.7,14.7,6.6,14.7,14.7-6.6,14.7-14.7,14.7Z"/>
    </g>
    <g>
      <g>
        <path class="st2" d="M842.9,322.1c0,.9,0,1.8,0,2.8,0,31.7,25.7,57.5,57.5,57.5s57.5-25.7,57.5-57.5,0-1.9,0-2.8h-114.8,0Z"/>
        <rect class="st2" x="884.5" y="376.9" width="32.7" height="8.4" rx="2.2" ry="2.2"/>
      </g>
      <g>
        <path class="st0" d="M974.9,280.6c1.7-1.4,3.8-2.4,4.7-4.5,2.4-5.5-3-11.1-8.6-9-2.5.9-3.2,3.1-4.8,4.9,0-8.9-12.2-9.4-12.9-.5l1.5,8.9c.1.8.6,1.5,1.3,1.9,3.5,2.1,6.4,5,8.5,8.5.4.7,1.1,1.1,1.9,1.2,4.6.7,10.9,3.2,14.1-.9,3.6-4.6,0-10.6-5.5-10.6h0Z"/>
        <path class="st0" d="M951.6,283c-8.7-3.8-15.7-1.8-21.6,5.2-1.4,1.6-2.7,3.4-4,5.1-.4.5-.2,1.3.4,1.6,3.2,1.7,6.4,3.5,9.6,5.4.9.5,1.1,1.6.7,2.5-.5.9-1.7,1.1-2.5.6-1.1-.7-2.2-1.3-3.3-2-2.2-1.3-4.5-2.5-6.8-3.8-.5-.3-1.1-.1-1.5.4-.7,1-1.4,2.1-2.1,3.1-.4.5-.2,1.3.4,1.6,1.9,1,3.7,2.1,5.5,3.2.9.5,1.1,1.6.7,2.5-.5.9-1.7,1.1-2.5.6-1.1-.7-2.2-1.3-3.3-2-.9-.5-1.7-1-2.6-1.5-.5-.3-1.2-.1-1.5.4l-1.5,2.3h0c-.9,1.4-2.3,3.7-2.6,4.2-1.1,1.8-2.3,3.7-3.4,5.7h47c0,0,.2,0,.3-.1l2.8-2.4c.1,0,1.5-1.3,1.7-1.5,9.9-10,1.4-26.6-9.8-31.4h0Z"/>
      </g>
      <path class="st0" d="M892.9,289.5c-2.8.4-5.5,1.4-8.3,1.8.8-7.5,5.2-13.6,11.1-17.9,1.3-.9,1.6-2.7.8-4.1h0c-.9-1.6-3-2-4.5-.9-2.9,2-5.4,4.5-7.7,7.2-2.2-8.3-10.2-13.2-18.5-13.5h-5.2c-.8-.1-1.5.5-1.5,1.4,0,5.6.5,11.4,3.5,16.3,3.5,5.4,9.7,8.3,16,8.6l-.4,3.1c-8-2.1-15.9-4.1-23.5.3-9.8,5.7-12.2,16-11.6,26.6h62.1l11.1-18c-4.7-7.8-13.2-12.6-23.6-11h0Z"/>
    </g>
    <g>
      <rect class="st4" x="1040.4" y="309.8" width="43" height="7.5"/>
      <rect class="st4" x="1040.4" y="325.9" width="43" height="7.5"/>
    </g>
  </g>
  <g>
    <g>
      <g>
        <path class="st4" d="M351.3,601.3l-.9,17c7.2,2,12.6,10.9,12.6,21.5,0,6.2-1.9,11.8-4.9,15.8-.4.5-1.2.2-1.2-.4v-16c0-.8-.6-1.5-1.4-1.5h-1c-.8,0-1.5.7-1.5,1.5v18.4c0,.7-.5,1.3-1.1,1.6h0c-1.1.5-2.4-.4-2.4-1.6v-18.2c0-.9-.6-1.6-1.5-1.6h-.7c-.9,0-1.7.7-1.7,1.7v18.5c0,1.1-1.2,1.9-2.2,1.5-.6-.2-1.1-.8-1.1-1.5v-18.1c0-1.1-.8-2-1.9-2s-2,.9-2,2v16c0,.7-.9,1-1.4.5-3.2-4-5.3-9.9-5.3-16.5,0-10,4.9-18.3,11.4-21l-.6-17.4c-14.9,2.4-26.3,15.3-26.3,30.8,0,29.4,31.2,53.3,31.2,53.3,0,0,31.2-23.9,31.2-53.3s-11.9-29-27.2-30.9h0Z"/>
        <g>
          <path class="st4" d="M189.5,685.5h0c-14.5,0-27.4-5.4-36.2-15.4-2.3-2.6-3.3-6-2.6-9.3.7-3.6,3.1-6.6,6.5-8.2l.7-.3c4.1-2,8.7-1.8,12.5.6,3.6,2.2,5.7,6,5.7,10,0,11,4.9,17.3,13.5,17.3s17.7-5.8,17.7-12.9-2.6-8-7.2-10.4l-32-17.4c-10.5-5.6-16.8-15-16.8-25.3,0-16.7,18-30.4,40-30.4s25.8,5.5,34.2,15.6c2.2,2.7,3.1,6.2,2.4,9.7-.7,3.5-2.9,6.5-6.1,8.2l-.7.3c-3.7,1.9-7.8,1.8-11.3-.4-3.6-2.2-5.8-6.1-5.7-10.5,0-6.5-1.4-11.4-4.4-14.4-2.2-2.2-5-3.3-8.5-3.3-10,0-18.1,6.4-18.1,14.3s3,9.3,8.1,11.9l34,18.5c10.2,5.5,16.1,13.8,16.1,22.8,0,15.9-18.7,28.8-41.8,28.8h0Z"/>
          <path class="st4" d="M311.4,649.4c0,17.5-7.6,36.2-28.9,36.2s-12.5-3.4-16.9-9h0c0-.1-.2-.2-.2-.3,0,0-.1-.1-.2-.2,0,0-.2,0-.3,0-.1,0-.2,0-.3,0s0,0,0,0c0,0-.1,0-.2,0-.1,0-.2,0-.3,0s-.2,0-.3.1c0,0-.1,0-.2,0h0c0,.1-.1.2-.2.3s-.1.2-.2.2c0,0,0,.2,0,.3,0,.1,0,.2,0,.3s0,0,0,0v34.5c0,2.1,1.3,3.8,3.2,4.4v5.7h-33.8v-5.7c1.8-.6,3.1-2.3,3.2-4.3,0,0,0,0,0,0v-82.8c0-2-1.3-3.8-3.2-4.4v-5.9l1.9-.3,28.7-5v7.7s0,0,0,0c0,.1,0,.2,0,.3,0,0,0,.2,0,.3,0,0,.1.1.2.2s.1.2.2.2h0c0,.1.1.1.2.2,0,0,.1,0,.2,0,.2,0,.4.1.5.1s.4,0,.6-.2c0,0,0,0,.1,0,.1,0,.3-.2.4-.3h0c4.4-5.7,10.7-9,16.9-9,21.3,0,28.9,18.7,28.9,36.2h0ZM284,649.4c0-12.8-4.1-20.5-10.9-20.5s-10.2,4.6-10.2,10.2v20.7c0,5.6,4.6,10.2,10.2,10.2s10.9-7.7,10.9-20.5h0Z"/>
          <path class="st4" d="M453.1,624.1c.2,5-2.6,10.5-9.4,11.7-3.9.7-7.8-.7-10.5-3.6-1.9-2.2-4.7-3.4-7.6-3.4-5.6,0-10.2,4.5-10.2,10.2v34.9c0,2.1,1.4,3.8,3.2,4.4v5.7h-33.8v-5.7c1.8-.6,3.1-2.3,3.2-4.4v-44.9c0-2-1.4-3.8-3.2-4.4v-5.9l1.1-.2,8.9-1.6,20.5-3.6v11.2c0,0,0,0,0,.2,0,.1,0,.2,0,.3,0,0,0,.2.1.3,0,0,.1.2.2.2s.1.1.2.2c0,0,0,0,.1,0,0,0,.1,0,.2,0,0,0,.1,0,.1,0,.2,0,.3,0,.5,0s.5,0,.6-.2c0,0,.1,0,.2,0,.1,0,.3-.2.4-.3,0,0,0,0,0,0,5.1-7.8,13-12.3,21.8-12.3s1.9,0,2.8.1c6.8.6,10,5.9,10.2,10.8h0Z"/>
          <path class="st4" d="M534.9,678.6v5.4h-19.9c-10.6,0-15.4-7.9-16.9-11.3,0,0,0-.2-.1-.2h0s-6.5-15.1-6.5-15.1h0c-.6-1.3-1.9-2.1-3.3-2.1s-1.5,0-2.4.7c0,0,0,0,0,0l-1.8,1.7h0c-.1.2-.2.3-.3.5,0,.2-.1.4-.1.6v15.1c0,2.1,1.3,3.8,3.2,4.4v5.7h-33.8v-5.6c1.9-.6,3.2-2.4,3.2-4.4v-76.6s0,0,0,0c0-2-1.3-3.7-3.2-4.4v-5.9l30.6-5.4v65.4c0,0,0,.1,0,.2,0,.1,0,.3,0,.4,0,.1.1.2.2.3,0,0,0,.1.1.2,0,0,0,0,0,0,.1.1.3.2.5.3.2,0,.4.1.6.1s.4,0,.6-.1c.1,0,.2-.1.3-.2,0,0,.1,0,.2-.1h0s22.7-22.1,22.7-22.1l.4-.4c1.7-1.8,1.6-3.1,1.2-3.9-.1-.3-.4-.7-1.1-1.1v-5.8h22.3v5.4h-5.4c-2.1,0-5.1,1.4-7.2,3.4l-.2.2s0,0,0,0l-10.5,10.2c0,0-.1.2-.2.2,0,.1-.1.2-.2.3h0s0,.1,0,.2c0,.2,0,.3,0,.4s0,.2,0,.3,0,.2,0,.3c0,.1.1.2.2.3,0,0,0,.1,0,.2h0c0,.1.2.2.4.3,0,0,0,0,.1,0,2.9,1.2,5.2,3.5,6.5,6.5l13.7,31.6v.2c1.2,2.2,3.7,3.8,5.9,3.8h.2Z"/>
          <path class="st4" d="M601,661.7c-.3,5.8-4,11.1-10.2,14.9-6.4,3.9-14.8,5.8-23.6,5.3-10.4-.6-20.1-4.6-25.9-10.7-2.2-2.2-2.9-5.4-2-8.4.9-3.1,3.3-5.4,6.4-6.1h.6c2.5-.7,5-.2,7.1,1.3,2.2,1.6,3.5,4.1,3.6,6.8.6,9.4,6,11.6,10.5,11.9,2.9.2,5.8-.5,8-1.8,2.4-1.4,3.7-3.5,3.8-5.8.2-2.9-1.6-5.6-4.9-7.3l-23.4-11.5c-9-4.5-14.2-11.5-13.8-18.7.7-11.7,15.8-20.5,33.8-19.4,9.6.5,18.6,3.8,24.5,9,2.5,2.2,3.5,5.5,2.7,8.8-.8,3.3-3.5,5.9-6.8,6.7l-.7.2c-2.5.5-4.9,0-6.9-1.4-2.1-1.5-3.5-4-3.8-6.7-.7-6.9-4.2-11.2-9.3-11.4-6-.3-11,2.8-11.2,7.1-.1,2.4,1.2,4.7,3.9,6.4l22.4,11c9.8,4.5,15.5,12.2,15.1,19.9h0Z"/>
          <path class="st4" d="M680.8,675v5.5h-32.6v-5.5c1.8-.6,3-2.3,3-4.3v-33.7c0-5.4-4.4-9.8-9.8-9.8s-9.8,4.4-9.8,9.8v33.7c0,2,1.3,3.7,3,4.3v5.5h-32.6v-5.4c.2,0,.4-.2.5-.2.3.3.7.5,1.1.5.8,0,1.5-.7,1.5-1.5v-77c0-2-1.3-3.7-3.1-4.3v-5.7l29.5-5.2v41.5c0,0,0,0,0,.2,0,0,0,.2,0,.3,0,0,0,.2,0,.3,0,0,0,.2.2.2s.1.1.2.2c0,0,0,0,0,0,0,0,0,0,.2,0,0,0,0,0,.1,0,.2,0,.3,0,.5,0s.5,0,.6-.2c0,0,.1,0,.2,0,.1,0,.3-.2.4-.3,0,0,0,0,0,0,4.9-7.5,12.5-11.9,21-11.9,13,0,22.5,8.3,22.5,19.7v39c0,2,1.3,3.6,3.1,4.2h0Z"/>
          <path class="st4" d="M754.7,675v5.5h-17.3c-4.4,0-7.7-1.4-9.8-4.1,0,0,0,0,0,0,0,0-.2-.1-.2-.2s-.1,0-.2-.1c0,0-.2,0-.2,0,0,0-.2,0-.3,0s-.2,0-.3,0h-.3c0,0,0,0-.1,0-11.8,5.4-28.6,8.5-37.7,2.6-4.1-2.6-6.2-6.9-6.2-12.6,0-15.8,26.4-24.2,42.1-27.7,0,0,0,0,.1,0,0,0,.2,0,.2-.1,0,0,.2,0,.2-.2,0,0,.1-.1.2-.2,0,0,0-.1.2-.2,0,0,0-.2,0-.3,0,0,0-.2,0-.3,0,0,0,0,0-.1v-11c0-5.7-2.4-8.5-7.2-8.5s-4.4.8-5.7,2.3c-1.3,1.6-1.8,3.8-1.3,6.5,0,.5.1,1,.1,1.7,0,4.6-3.2,8.9-7.9,10.4-6.6,2.1-11.6-1.5-13.7-6-2.1-4.5-1.6-10.8,4.4-14.4,5.3-3.2,15.6-5.7,24-5.7,16.6,0,33.7,2.8,33.7,23.3v35.4c0,2,1.3,3.7,3,4.3h0ZM725.2,669.3c0-.3,0-.6,0-.9v-24.1c0,0,0-.2,0-.3,0,0,0-.2,0-.3,0,0,0,0-.1-.2,0,0-.1-.2-.2-.3s-.2,0-.2-.2c0,0-.1-.1-.2-.1-.1,0-.2,0-.4,0,0,0-.1,0-.2,0h0c0,0-.2,0-.3,0s-.2,0-.3,0c-4.8,2.1-8.5,4.9-11,8.1-2.5,3.2-3.8,7-3.8,11.2s1.2,7,3.7,8.7c1.4,1,3.1,1.4,5.1,1.4s4.5-.5,7.1-1.6c0,0,0,0,0,0,0,0,.2,0,.3-.2,0,0,.1,0,.2-.2s.1-.2.2-.2c0,0,0-.2.1-.3,0,0,0-.2,0-.2,0,0,0-.2,0-.3s0,0,0,0h0Z"/>
          <path class="st4" d="M823.5,622.6c.2,4.8-2.5,10.1-9,11.3-3.8.7-7.5-.7-10.1-3.5-1.9-2.1-4.5-3.2-7.3-3.2-5.4,0-9.8,4.4-9.8,9.8v33.7c0,2,1.3,3.7,3.1,4.3v5.5h-32.6v-5.5c1.8-.6,3-2.3,3.1-4.2v-43.3c0-2-1.3-3.6-3.1-4.2v-5.7l1.1-.2,8.6-1.5,19.8-3.5v10.8c0,0,0,0,0,.2,0,0,0,.2,0,.3,0,0,0,.2,0,.3,0,0,0,.2.2.2s.1.1.2.2c0,0,0,0,0,0,0,0,0,0,.2,0,0,0,0,0,.1,0,.2,0,.3,0,.5,0s.5,0,.6-.2c0,0,0,0,.2,0,.1,0,.2-.2.4-.3,0,0,0,0,0,0,4.9-7.5,12.5-11.9,21-11.9s1.8,0,2.7.1c6.6.6,9.7,5.7,9.9,10.5h0Z"/>
          <path class="st4" d="M879.5,661.4l5.5,3c-7,12.2-20.4,19-34.6,17.3-15.9-1.9-28.7-14.8-30.5-30.7-1.2-10.3,1.9-20.1,8.5-27.5,6.6-7.4,15.9-11.4,26.2-11.4,17,0,30.8,9.4,30.8,20.9s-13.8,20.9-30.8,20.9-3.8-.1-5.6-.3c0,0,0,0,0,0,0,0-.2,0-.3,0s-.2,0-.3,0c0,0,0,0,0,0,0,0,0,0-.2,0,0,0-.2,0-.2.2,0,0-.1.1-.2.2,0,0,0,.2-.1.2,0,0,0,.2,0,.3,0,0,0,0,0,.2,0,0,0,0,0,0,0,0,0,.2,0,.3s0,.2,0,.3c0,0,0,0,0,0,5.2,12.2,17.2,11.3,18.5,11.2,5,0,9.8-1.9,13.4-5.3h0ZM847.4,651.5h.2c4.4-.5,18.9-3.2,18.9-18.3h0c0-10.1-3.2-15.9-8.7-16,0,0,0,0,0,0-.1,0-3.2-.2-6.2,2.6-4.2,3.9-6.3,11.4-6.3,22.2s.3,5.7.7,8.1h0c0,.2,0,.3,0,.4,0,0,0,.1,0,.2,0,0,.1.2.2.2,0,0,0,.1.1.2,0,0,.2.1.3.2,0,0,0,0,.2,0,.2,0,.3,0,.5,0h0Z"/>
        </g>
      </g>
      <path class="st3" d="M885.5,722.8h-6.1c-.4,0-.8-.3-.8-.8s.3-.8.8-.8h5.4c0,0,0-.2,0-.2v-6.1c0-.4.3-.8.8-.8s.8.3.8.8v6.1c0,.2,0,.4-.2.5.1.1.2.3.2.5,0,.4-.3.8-.8.8h0ZM873.3,722.8h-6.1c-.4,0-.8-.3-.8-.8s.3-.8.8-.8h6.1c.4,0,.8.3.8.8s-.3.8-.8.8ZM861.1,722.8h-6.1c-.4,0-.8-.3-.8-.8s.3-.8.8-.8h6.1c.4,0,.8.3.8.8s-.3.8-.8.8ZM848.8,722.8h-6.1c-.4,0-.8-.3-.8-.8s.3-.8.8-.8h6.1c.4,0,.8.3.8.8s-.3.8-.8.8ZM836.6,722.8h-6.1c-.4,0-.8-.3-.8-.8s.3-.8.8-.8h6.1c.4,0,.8.3.8.8s-.3.8-.8.8ZM824.3,722.8h-6.1c-.4,0-.8-.3-.8-.8s.3-.8.8-.8h6.1c.4,0,.8.3.8.8s-.3.8-.8.8ZM812.1,722.8h-6.1c-.4,0-.8-.3-.8-.8s.3-.8.8-.8h6.1c.4,0,.8.3.8.8s-.3.8-.8.8ZM799.9,722.8h-6.1c-.4,0-.8-.3-.8-.8s.3-.8.8-.8h6.1c.4,0,.8.3.8.8s-.3.8-.8.8ZM787.6,722.8h-6.1c-.4,0-.8-.3-.8-.8s.3-.8.8-.8h6.1c.4,0,.8.3.8.8s-.3.8-.8.8ZM775.4,722.8h-6.1c-.4,0-.8-.3-.8-.8s.3-.8.8-.8h6.1c.4,0,.8.3.8.8s-.3.8-.8.8ZM763.2,722.8h-6.1c-.4,0-.8-.3-.8-.8s.3-.8.8-.8h6.1c.4,0,.8.3.8.8s-.3.8-.8.8ZM750.9,722.8h-6.1c-.4,0-.8-.3-.8-.8s.3-.8.8-.8h6.1c.4,0,.8.3.8.8s-.3.8-.8.8ZM738.7,722.8h-6.1c-.4,0-.8-.3-.8-.8s.3-.8.8-.8h6.1c.4,0,.8.3.8.8s-.3.8-.8.8ZM726.4,722.8h-6.1c-.4,0-.8-.3-.8-.8s.3-.8.8-.8h6.1c.4,0,.8.3.8.8s-.3.8-.8.8ZM714.2,722.8h-6.1c-.4,0-.8-.3-.8-.8s.3-.8.8-.8h6.1c.4,0,.8.3.8.8s-.3.8-.8.8ZM701.9,722.8h-6.1c-.4,0-.8-.3-.8-.8s.3-.8.8-.8h6.1c.4,0,.8.3.8.8s-.3.8-.8.8ZM689.7,722.8h-6.1c-.4,0-.8-.3-.8-.8s.3-.8.8-.8h6.1c.4,0,.8.3.8.8s-.3.8-.8.8ZM677.5,722.8h-6.1c-.4,0-.8-.3-.8-.8s.3-.8.8-.8h6.1c.4,0,.8.3.8.8s-.3.8-.8.8ZM665.2,722.8h-6.1c-.4,0-.8-.3-.8-.8s.3-.8.8-.8h6.1c.4,0,.8.3.8.8s-.3.8-.8.8ZM653,722.8h-6.1c-.4,0-.8-.3-.8-.8s.3-.8.8-.8h6.1c.4,0,.8.3.8.8s-.3.8-.8.8ZM640.7,722.8h-6.1c-.4,0-.8-.3-.8-.8s.3-.8.8-.8h6.1c.4,0,.8.3.8.8s-.3.8-.8.8ZM628.5,722.8h-6.1c-.4,0-.8-.3-.8-.8s.3-.8.8-.8h6.1c.4,0,.8.3.8.8s-.3.8-.8.8ZM616.3,722.8h-6.1c-.4,0-.8-.3-.8-.8s.3-.8.8-.8h6.1c.4,0,.8.3.8.8s-.3.8-.8.8ZM604,722.8h-6.1c-.4,0-.8-.3-.8-.8s.3-.8.8-.8h6.1c.4,0,.8.3.8.8s-.3.8-.8.8ZM591.8,722.8h-6.1c-.4,0-.8-.3-.8-.8s.3-.8.8-.8h6.1c.4,0,.8.3.8.8s-.3.8-.8.8ZM579.5,722.8h-6.1c-.4,0-.8-.3-.8-.8s.3-.8.8-.8h6.1c.4,0,.8.3.8.8s-.3.8-.8.8ZM567.3,722.8h-6.1c-.4,0-.8-.3-.8-.8s.3-.8.8-.8h6.1c.4,0,.8.3.8.8s-.3.8-.8.8ZM555.1,722.8h-6.1c-.4,0-.8-.3-.8-.8s.3-.8.8-.8h6.1c.4,0,.8.3.8.8s-.3.8-.8.8ZM542.8,722.8h-6.1c-.4,0-.8-.3-.8-.8s.3-.8.8-.8h6.1c.4,0,.8.3.8.8s-.3.8-.8.8ZM530.6,722.8h-6.1c-.4,0-.8-.3-.8-.8s.3-.8.8-.8h6.1c.4,0,.8.3.8.8s-.3.8-.8.8ZM518.3,722.8h-6.1c-.4,0-.8-.3-.8-.8s.3-.8.8-.8h6.1c.4,0,.8.3.8.8s-.3.8-.8.8ZM506.1,722.8h-6.1c-.4,0-.8-.3-.8-.8s.3-.8.8-.8h6.1c.4,0,.8.3.8.8s-.3.8-.8.8ZM493.9,722.8h-6.1c-.4,0-.8-.3-.8-.8s.3-.8.8-.8h6.1c.4,0,.8.3.8.8s-.3.8-.8.8ZM481.6,722.8h-6.1c-.4,0-.8-.3-.8-.8s.3-.8.8-.8h6.1c.4,0,.8.3.8.8s-.3.8-.8.8ZM469.4,722.8h-6.1c-.4,0-.8-.3-.8-.8s.3-.8.8-.8h6.1c.4,0,.8.3.8.8s-.3.8-.8.8ZM457.1,722.8h-6.1c-.4,0-.8-.3-.8-.8s.3-.8.8-.8h6.1c.4,0,.8.3.8.8s-.3.8-.8.8ZM444.9,722.8h-6.1c-.4,0-.8-.3-.8-.8s.3-.8.8-.8h6.1c.4,0,.8.3.8.8s-.3.8-.8.8ZM432.6,722.8h-6.1c-.4,0-.8-.3-.8-.8s.3-.8.8-.8h6.1c.4,0,.8.3.8.8s-.3.8-.8.8ZM420.4,722.8h-6.1c-.4,0-.8-.3-.8-.8s.3-.8.8-.8h6.1c.4,0,.8.3.8.8s-.3.8-.8.8ZM408.2,722.8h-6.1c-.4,0-.8-.3-.8-.8s.3-.8.8-.8h6.1c.4,0,.8.3.8.8s-.3.8-.8.8ZM395.9,722.8h-6.1c-.4,0-.8-.3-.8-.8s.3-.8.8-.8h6.1c.4,0,.8.3.8.8s-.3.8-.8.8ZM383.7,722.8h-6.1c-.4,0-.8-.3-.8-.8s.3-.8.8-.8h6.1c.4,0,.8.3.8.8s-.3.8-.8.8ZM371.5,722.8h-6.1c-.4,0-.8-.3-.8-.8s.3-.8.8-.8h6.1c.4,0,.8.3.8.8s-.3.8-.8.8ZM359.2,722.8h-6.1c-.4,0-.8-.3-.8-.8s.3-.8.8-.8h6.1c.4,0,.8.3.8.8s-.3.8-.8.8ZM347,722.8h-6.1c-.4,0-.8-.3-.8-.8s.3-.8.8-.8h6.1c.4,0,.8.3.8.8s-.3.8-.8.8ZM334.7,722.8h-6.1c-.4,0-.8-.3-.8-.8s.3-.8.8-.8h6.1c.4,0,.8.3.8.8s-.3.8-.8.8ZM322.5,722.8h-6.1c-.4,0-.8-.3-.8-.8s.3-.8.8-.8h6.1c.4,0,.8.3.8.8s-.3.8-.8.8ZM310.2,722.8h-6.1c-.4,0-.8-.3-.8-.8s.3-.8.8-.8h6.1c.4,0,.8.3.8.8s-.3.8-.8.8ZM298,722.8h-6.1c-.4,0-.8-.3-.8-.8s.3-.8.8-.8h6.1c.4,0,.8.3.8.8s-.3.8-.8.8ZM285.8,722.8h-6.1c-.4,0-.8-.3-.8-.8s.3-.8.8-.8h6.1c.4,0,.8.3.8.8s-.3.8-.8.8ZM273.5,722.8h-6.1c-.4,0-.8-.3-.8-.8s.3-.8.8-.8h6.1c.4,0,.8.3.8.8s-.3.8-.8.8ZM261.3,722.8h-6.1c-.4,0-.8-.3-.8-.8s.3-.8.8-.8h6.1c.4,0,.8.3.8.8s-.3.8-.8.8ZM249.1,722.8h-6.1c-.4,0-.8-.3-.8-.8s.3-.8.8-.8h6.1c.4,0,.8.3.8.8s-.3.8-.8.8ZM236.8,722.8h-6.1c-.4,0-.8-.3-.8-.8s.3-.8.8-.8h6.1c.4,0,.8.3.8.8s-.3.8-.8.8ZM224.6,722.8h-6.1c-.4,0-.8-.3-.8-.8s.3-.8.8-.8h6.1c.4,0,.8.3.8.8s-.3.8-.8.8ZM212.3,722.8h-6.1c-.4,0-.8-.3-.8-.8s.3-.8.8-.8h6.1c.4,0,.8.3.8.8s-.3.8-.8.8ZM200.1,722.8h-6.1c-.4,0-.8-.3-.8-.8s.3-.8.8-.8h6.1c.4,0,.8.3.8.8s-.3.8-.8.8ZM187.8,722.8h-6.1c-.4,0-.8-.3-.8-.8s.3-.8.8-.8h6.1c.4,0,.8.3.8.8s-.3.8-.8.8ZM175.6,722.8h-6.1c-.4,0-.8-.3-.8-.8s.3-.8.8-.8h6.1c.4,0,.8.3.8.8s-.3.8-.8.8ZM163.4,722.8h-6.1c-.4,0-.8-.3-.8-.8s.3-.8.8-.8h6.1c.4,0,.8.3.8.8s-.3.8-.8.8ZM151.1,722.8h-6.1c-.4,0-.8-.3-.8-.8s.3-.8.8-.8h6.1c.4,0,.8.3.8.8s-.3.8-.8.8ZM142.4,719.2c-.4,0-.8-.3-.8-.8v-6.1c0-.4.3-.8.8-.8s.8.3.8.8v6.1c0,.4-.3.8-.8.8ZM885.5,709.6c-.4,0-.8-.3-.8-.8v-6.1c0-.4.3-.8.8-.8s.8.3.8.8v6.1c0,.4-.3.8-.8.8ZM142.4,707c-.4,0-.8-.3-.8-.8v-6.1c0-.4.3-.8.8-.8s.8.3.8.8v6.1c0,.4-.3.8-.8.8ZM885.5,697.3c-.4,0-.8-.3-.8-.8v-6.1c0-.4.3-.8.8-.8s.8.3.8.8v6.1c0,.4-.3.8-.8.8ZM142.4,694.8c-.4,0-.8-.3-.8-.8v-6.1c0-.4.3-.8.8-.8s.8.3.8.8v6.1c0,.4-.3.8-.8.8ZM885.5,685.1c-.4,0-.8-.3-.8-.8v-6.1c0-.4.3-.8.8-.8s.8.3.8.8v6.1c0,.4-.3.8-.8.8ZM142.4,682.5c-.4,0-.8-.3-.8-.8v-6.1c0-.4.3-.8.8-.8s.8.3.8.8v6.1c0,.4-.3.8-.8.8ZM885.5,672.8c-.4,0-.8-.3-.8-.8v-6.1c0-.4.3-.8.8-.8s.8.3.8.8v6.1c0,.4-.3.8-.8.8ZM142.4,670.3c-.4,0-.8-.3-.8-.8v-6.1c0-.4.3-.8.8-.8s.8.3.8.8v6.1c0,.4-.3.8-.8.8ZM885.5,660.6c-.4,0-.8-.3-.8-.8v-6.1c0-.4.3-.8.8-.8s.8.3.8.8v6.1c0,.4-.3.8-.8.8ZM142.4,658c-.4,0-.8-.3-.8-.8v-6.1c0-.4.3-.8.8-.8s.8.3.8.8v6.1c0,.4-.3.8-.8.8ZM885.5,648.3c-.4,0-.8-.3-.8-.8v-6.1c0-.4.3-.8.8-.8s.8.3.8.8v6.1c0,.4-.3.8-.8.8ZM142.4,645.8c-.4,0-.8-.3-.8-.8v-6.1c0-.4.3-.8.8-.8s.8.3.8.8v6.1c0,.4-.3.8-.8.8ZM885.5,636.1c-.4,0-.8-.3-.8-.8v-6.1c0-.4.3-.8.8-.8s.8.3.8.8v6.1c0,.4-.3.8-.8.8ZM142.4,633.6c-.4,0-.8-.3-.8-.8v-6.1c0-.4.3-.8.8-.8s.8.3.8.8v6.1c0,.4-.3.8-.8.8ZM885.5,623.9c-.4,0-.8-.3-.8-.8v-6.1c0-.4.3-.8.8-.8s.8.3.8.8v6.1c0,.4-.3.8-.8.8ZM142.4,621.3c-.4,0-.8-.3-.8-.8v-6.1c0-.4.3-.8.8-.8s.8.3.8.8v6.1c0,.4-.3.8-.8.8ZM885.5,611.6c-.4,0-.8-.3-.8-.8v-6.1c0-.4.3-.8.8-.8s.8.3.8.8v6.1c0,.4-.3.8-.8.8ZM142.4,609.1c-.4,0-.8-.3-.8-.8v-6.1c0-.4.3-.8.8-.8s.8.3.8.8v6.1c0,.4-.3.8-.8.8ZM885.5,599.4c-.4,0-.8-.3-.8-.8v-6.1c0-.4.3-.8.8-.8s.8.3.8.8v6.1c0,.4-.3.8-.8.8ZM142.4,596.8c-.4,0-.8-.3-.8-.8v-6.1c0-.4.3-.8.8-.8s.8.3.8.8v6.1c0,.4-.3.8-.8.8ZM885.5,587.2c-.4,0-.8-.3-.8-.8v-6h0c0-.5.3-.9.8-.9h0c.4,0,.8.3.8.8v6.1c0,.4-.3.8-.8.8h0ZM142.4,584.6c-.4,0-.8-.3-.8-.8v-3.6c0-.4.3-.8.8-.8h2.6c.4,0,.8.3.8.8s-.3.8-.8.8h-1.8v2.8c0,.4-.3.8-.8.8h0ZM879.4,581h-6.1c-.4,0-.8-.3-.8-.8s.3-.8.8-.8h6.1c.4,0,.8.3.8.8s-.3.8-.8.8ZM867.2,581h-6.1c-.4,0-.8-.3-.8-.8s.3-.8.8-.8h6.1c.4,0,.8.3.8.8s-.3.8-.8.8ZM854.9,581h-6.1c-.4,0-.8-.3-.8-.8s.3-.8.8-.8h6.1c.4,0,.8.3.8.8s-.3.8-.8.8ZM842.7,581h-6.1c-.4,0-.8-.3-.8-.8s.3-.8.8-.8h6.1c.4,0,.8.3.8.8s-.3.8-.8.8ZM830.5,581h-6.1c-.4,0-.8-.3-.8-.8s.3-.8.8-.8h6.1c.4,0,.8.3.8.8s-.3.8-.8.8ZM818.2,581h-6.1c-.4,0-.8-.3-.8-.8s.3-.8.8-.8h6.1c.4,0,.8.3.8.8s-.3.8-.8.8ZM806,581h-6.1c-.4,0-.8-.3-.8-.8s.3-.8.8-.8h6.1c.4,0,.8.3.8.8s-.3.8-.8.8ZM793.7,581h-6.1c-.4,0-.8-.3-.8-.8s.3-.8.8-.8h6.1c.4,0,.8.3.8.8s-.3.8-.8.8ZM781.5,581h-6.1c-.4,0-.8-.3-.8-.8s.3-.8.8-.8h6.1c.4,0,.8.3.8.8s-.3.8-.8.8ZM769.2,581h-6.1c-.4,0-.8-.3-.8-.8s.3-.8.8-.8h6.1c.4,0,.8.3.8.8s-.3.8-.8.8ZM757,581h-6.1c-.4,0-.8-.3-.8-.8s.3-.8.8-.8h6.1c.4,0,.8.3.8.8s-.3.8-.8.8ZM744.8,581h-6.1c-.4,0-.8-.3-.8-.8s.3-.8.8-.8h6.1c.4,0,.8.3.8.8s-.3.8-.8.8ZM732.5,581h-6.1c-.4,0-.8-.3-.8-.8s.3-.8.8-.8h6.1c.4,0,.8.3.8.8s-.3.8-.8.8ZM720.3,581h-6.1c-.4,0-.8-.3-.8-.8s.3-.8.8-.8h6.1c.4,0,.8.3.8.8s-.3.8-.8.8ZM708,581h-6.1c-.4,0-.8-.3-.8-.8s.3-.8.8-.8h6.1c.4,0,.8.3.8.8s-.3.8-.8.8ZM695.8,581h-6.1c-.4,0-.8-.3-.8-.8s.3-.8.8-.8h6.1c.4,0,.8.3.8.8s-.3.8-.8.8ZM683.6,581h-6.1c-.4,0-.8-.3-.8-.8s.3-.8.8-.8h6.1c.4,0,.8.3.8.8s-.3.8-.8.8ZM671.3,581h-6.1c-.4,0-.8-.3-.8-.8s.3-.8.8-.8h6.1c.4,0,.8.3.8.8s-.3.8-.8.8ZM659.1,581h-6.1c-.4,0-.8-.3-.8-.8s.3-.8.8-.8h6.1c.4,0,.8.3.8.8s-.3.8-.8.8ZM646.8,581h-6.1c-.4,0-.8-.3-.8-.8s.3-.8.8-.8h6.1c.4,0,.8.3.8.8s-.3.8-.8.8ZM634.6,581h-6.1c-.4,0-.8-.3-.8-.8s.3-.8.8-.8h6.1c.4,0,.8.3.8.8s-.3.8-.8.8ZM622.4,581h-6.1c-.4,0-.8-.3-.8-.8s.3-.8.8-.8h6.1c.4,0,.8.3.8.8s-.3.8-.8.8ZM610.1,581h-6.1c-.4,0-.8-.3-.8-.8s.3-.8.8-.8h6.1c.4,0,.8.3.8.8s-.3.8-.8.8ZM597.9,581h-6.1c-.4,0-.8-.3-.8-.8s.3-.8.8-.8h6.1c.4,0,.8.3.8.8s-.3.8-.8.8ZM585.7,581h-6.1c-.4,0-.8-.3-.8-.8s.3-.8.8-.8h6.1c.4,0,.8.3.8.8s-.3.8-.8.8ZM573.4,581h-6.1c-.4,0-.8-.3-.8-.8s.3-.8.8-.8h6.1c.4,0,.8.3.8.8s-.3.8-.8.8ZM561.2,581h-6.1c-.4,0-.8-.3-.8-.8s.3-.8.8-.8h6.1c.4,0,.8.3.8.8s-.3.8-.8.8ZM548.9,581h-6.1c-.4,0-.8-.3-.8-.8s.3-.8.8-.8h6.1c.4,0,.8.3.8.8s-.3.8-.8.8ZM536.7,581h-6.1c-.4,0-.8-.3-.8-.8s.3-.8.8-.8h6.1c.4,0,.8.3.8.8s-.3.8-.8.8ZM524.4,581h-6.1c-.4,0-.8-.3-.8-.8s.3-.8.8-.8h6.1c.4,0,.8.3.8.8s-.3.8-.8.8ZM512.2,581h-6.1c-.4,0-.8-.3-.8-.8s.3-.8.8-.8h6.1c.4,0,.8.3.8.8s-.3.8-.8.8ZM500,581h-6.1c-.4,0-.8-.3-.8-.8s.3-.8.8-.8h6.1c.4,0,.8.3.8.8s-.3.8-.8.8ZM487.7,581h-6.1c-.4,0-.8-.3-.8-.8s.3-.8.8-.8h6.1c.4,0,.8.3.8.8s-.3.8-.8.8ZM475.5,581h-6.1c-.4,0-.8-.3-.8-.8s.3-.8.8-.8h6.1c.4,0,.8.3.8.8s-.3.8-.8.8ZM463.2,581h-6.1c-.4,0-.8-.3-.8-.8s.3-.8.8-.8h6.1c.4,0,.8.3.8.8s-.3.8-.8.8ZM451,581h-6.1c-.4,0-.8-.3-.8-.8s.3-.8.8-.8h6.1c.4,0,.8.3.8.8s-.3.8-.8.8ZM438.8,581h-6.1c-.4,0-.8-.3-.8-.8s.3-.8.8-.8h6.1c.4,0,.8.3.8.8s-.3.8-.8.8ZM426.5,581h-6.1c-.4,0-.8-.3-.8-.8s.3-.8.8-.8h6.1c.4,0,.8.3.8.8s-.3.8-.8.8ZM414.3,581h-6.1c-.4,0-.8-.3-.8-.8s.3-.8.8-.8h6.1c.4,0,.8.3.8.8s-.3.8-.8.8ZM402,581h-6.1c-.4,0-.8-.3-.8-.8s.3-.8.8-.8h6.1c.4,0,.8.3.8.8s-.3.8-.8.8ZM389.8,581h-6.1c-.4,0-.8-.3-.8-.8s.3-.8.8-.8h6.1c.4,0,.8.3.8.8s-.3.8-.8.8ZM377.6,581h-6.1c-.4,0-.8-.3-.8-.8s.3-.8.8-.8h6.1c.4,0,.8.3.8.8s-.3.8-.8.8ZM365.3,581h-6.1c-.4,0-.8-.3-.8-.8s.3-.8.8-.8h6.1c.4,0,.8.3.8.8s-.3.8-.8.8ZM353.1,581h-6.1c-.4,0-.8-.3-.8-.8s.3-.8.8-.8h6.1c.4,0,.8.3.8.8s-.3.8-.8.8ZM340.8,581h-6.1c-.4,0-.8-.3-.8-.8s.3-.8.8-.8h6.1c.4,0,.8.3.8.8s-.3.8-.8.8ZM328.6,581h-6.1c-.4,0-.8-.3-.8-.8s.3-.8.8-.8h6.1c.4,0,.8.3.8.8s-.3.8-.8.8ZM316.4,581h-6.1c-.4,0-.8-.3-.8-.8s.3-.8.8-.8h6.1c.4,0,.8.3.8.8s-.3.8-.8.8ZM304.1,581h-6.1c-.4,0-.8-.3-.8-.8s.3-.8.8-.8h6.1c.4,0,.8.3.8.8s-.3.8-.8.8ZM291.9,581h-6.1c-.4,0-.8-.3-.8-.8s.3-.8.8-.8h6.1c.4,0,.8.3.8.8s-.3.8-.8.8ZM279.6,581h-6.1c-.4,0-.8-.3-.8-.8s.3-.8.8-.8h6.1c.4,0,.8.3.8.8s-.3.8-.8.8ZM267.4,581h-6.1c-.4,0-.8-.3-.8-.8s.3-.8.8-.8h6.1c.4,0,.8.3.8.8s-.3.8-.8.8ZM255.1,581h-6.1c-.4,0-.8-.3-.8-.8s.3-.8.8-.8h6.1c.4,0,.8.3.8.8s-.3.8-.8.8ZM242.9,581h-6.1c-.4,0-.8-.3-.8-.8s.3-.8.8-.8h6.1c.4,0,.8.3.8.8s-.3.8-.8.8ZM230.7,581h-6.1c-.4,0-.8-.3-.8-.8s.3-.8.8-.8h6.1c.4,0,.8.3.8.8s-.3.8-.8.8ZM218.4,581h-6.1c-.4,0-.8-.3-.8-.8s.3-.8.8-.8h6.1c.4,0,.8.3.8.8s-.3.8-.8.8ZM206.2,581h-6.1c-.4,0-.8-.3-.8-.8s.3-.8.8-.8h6.1c.4,0,.8.3.8.8s-.3.8-.8.8ZM193.9,581h-6.1c-.4,0-.8-.3-.8-.8s.3-.8.8-.8h6.1c.4,0,.8.3.8.8s-.3.8-.8.8ZM181.7,581h-6.1c-.4,0-.8-.3-.8-.8s.3-.8.8-.8h6.1c.4,0,.8.3.8.8s-.3.8-.8.8ZM169.5,581h-6.1c-.4,0-.8-.3-.8-.8s.3-.8.8-.8h6.1c.4,0,.8.3.8.8s-.3.8-.8.8ZM157.2,581h-6.1c-.4,0-.8-.3-.8-.8s.3-.8.8-.8h6.1c.4,0,.8.3.8.8s-.3.8-.8.8Z"/>
      <path class="st3" d="M142.4,581h-6.1c-.4,0-.8-.3-.8-.8s.3-.8.8-.8h5.4v-1.9c0-.4.3-.8.8-.8s.8.3.8.8v2.6c0,.4-.3.8-.8.8h0ZM130.2,581h-6.1c-.4,0-.8-.3-.8-.8s.3-.8.8-.8h6.1c.4,0,.8.3.8.8s-.3.8-.8.8ZM120.3,578.7c-.4,0-.8-.3-.8-.8v-6.1c0-.4.3-.8.8-.8s.8.3.8.8v6.1c0,.4-.3.8-.8.8ZM142.4,572.3c-.4,0-.8-.3-.8-.8v-6.1c0-.4.3-.8.8-.8s.8.3.8.8v6.1c0,.4-.3.8-.8.8ZM120.3,566.4c-.4,0-.8-.3-.8-.8v-6.1c0-.4.3-.8.8-.8s.8.3.8.8v6.1c0,.4-.3.8-.8.8ZM142.4,560c-.4,0-.8-.3-.8-.8v-.3h-4.3c-.4,0-.8-.3-.8-.8s.3-.8.8-.8h5c.4,0,.8.3.8.8v1.1c0,.4-.3.8-.8.8h0ZM131.3,559h-6.1c-.4,0-.8-.3-.8-.8s.3-.8.8-.8h6.1c.4,0,.8.3.8.8s-.3.8-.8.8Z"/>
      <path class="st3" d="M142.4,744.9h-6.1c-.4,0-.8-.3-.8-.8s.3-.8.8-.8h5.4v-1.9c0-.4.3-.8.8-.8s.8.3.8.8v2.6c0,.4-.3.8-.8.8h0ZM130.2,744.9h-6.1c-.4,0-.8-.3-.8-.8s.3-.8.8-.8h6.1c.4,0,.8.3.8.8s-.3.8-.8.8ZM120.3,742.5c-.4,0-.8-.3-.8-.8v-6.1c0-.4.3-.8.8-.8s.8.3.8.8v6.1c0,.4-.3.8-.8.8ZM142.4,736.1c-.4,0-.8-.3-.8-.8v-6.1c0-.4.3-.8.8-.8s.8.3.8.8v6.1c0,.4-.3.8-.8.8ZM120.3,730.2c-.4,0-.8-.3-.8-.8v-6.1c0-.4.3-.8.8-.8s.8.3.8.8v6.1c0,.4-.3.8-.8.8ZM142.4,723.9c-.4,0-.8-.3-.8-.8v-.3h-4.3c-.4,0-.8-.3-.8-.8s.3-.8.8-.8h5c.4,0,.8.3.8.8v1.1c0,.4-.3.8-.8.8h0ZM131.3,722.8h-6.1c-.4,0-.8-.3-.8-.8s.3-.8.8-.8h6.1c.4,0,.8.3.8.8s-.3.8-.8.8Z"/>
      <path class="st3" d="M906.9,581h-6.1c-.4,0-.8-.3-.8-.8s.3-.8.8-.8h5.4v-1.9c0-.4.3-.8.8-.8s.8.3.8.8v2.6c0,.4-.3.8-.8.8h0ZM894.7,581h-6.1c-.4,0-.8-.3-.8-.8s.3-.8.8-.8h6.1c.4,0,.8.3.8.8s-.3.8-.8.8ZM884.8,578.7c-.4,0-.8-.3-.8-.8v-6.1c0-.4.3-.8.8-.8s.8.3.8.8v6.1c0,.4-.3.8-.8.8ZM906.9,572.3c-.4,0-.8-.3-.8-.8v-6.1c0-.4.3-.8.8-.8s.8.3.8.8v6.1c0,.4-.3.8-.8.8ZM884.8,566.4c-.4,0-.8-.3-.8-.8v-6.1c0-.4.3-.8.8-.8s.8.3.8.8v6.1c0,.4-.3.8-.8.8ZM906.9,560c-.4,0-.8-.3-.8-.8v-.3h-4.3c-.4,0-.8-.3-.8-.8s.3-.8.8-.8h5c.4,0,.8.3.8.8v1.1c0,.4-.3.8-.8.8h0ZM895.7,559h-6.1c-.4,0-.8-.3-.8-.8s.3-.8.8-.8h6.1c.4,0,.8.3.8.8s-.3.8-.8.8Z"/>
      <path class="st3" d="M906.9,744.9h-6.1c-.4,0-.8-.3-.8-.8s.3-.8.8-.8h5.4v-1.9c0-.4.3-.8.8-.8s.8.3.8.8v2.6c0,.4-.3.8-.8.8h0ZM894.7,744.9h-6.1c-.4,0-.8-.3-.8-.8s.3-.8.8-.8h6.1c.4,0,.8.3.8.8s-.3.8-.8.8ZM884.8,742.5c-.4,0-.8-.3-.8-.8v-6.1c0-.4.3-.8.8-.8s.8.3.8.8v6.1c0,.4-.3.8-.8.8ZM906.9,736.1c-.4,0-.8-.3-.8-.8v-6.1c0-.4.3-.8.8-.8s.8.3.8.8v6.1c0,.4-.3.8-.8.8ZM884.8,730.2c-.4,0-.8-.3-.8-.8v-6.1c0-.4.3-.8.8-.8s.8.3.8.8v6.1c0,.4-.3.8-.8.8ZM906.9,723.9c-.4,0-.8-.3-.8-.8v-.3h-4.3c-.4,0-.8-.3-.8-.8s.3-.8.8-.8h5c.4,0,.8.3.8.8v1.1c0,.4-.3.8-.8.8h0ZM895.7,722.8h-6.1c-.4,0-.8-.3-.8-.8s.3-.8.8-.8h6.1c.4,0,.8.3.8.8s-.3.8-.8.8Z"/>
      <path class="st3" d="M883,559h-6.1c-.4,0-.8-.3-.8-.8s.3-.8.8-.8h6.1c.4,0,.8.3.8.8s-.3.8-.8.8ZM870.7,559h-6.1c-.4,0-.8-.3-.8-.8s.3-.8.8-.8h6.1c.4,0,.8.3.8.8s-.3.8-.8.8ZM858.5,559h-6.1c-.4,0-.8-.3-.8-.8s.3-.8.8-.8h6.1c.4,0,.8.3.8.8s-.3.8-.8.8ZM846.3,559h-6.1c-.4,0-.8-.3-.8-.8s.3-.8.8-.8h6.1c.4,0,.8.3.8.8s-.3.8-.8.8ZM834,559h-6.1c-.4,0-.8-.3-.8-.8s.3-.8.8-.8h6.1c.4,0,.8.3.8.8s-.3.8-.8.8ZM821.8,559h-6.1c-.4,0-.8-.3-.8-.8s.3-.8.8-.8h6.1c.4,0,.8.3.8.8s-.3.8-.8.8ZM809.5,559h-6.1c-.4,0-.8-.3-.8-.8s.3-.8.8-.8h6.1c.4,0,.8.3.8.8s-.3.8-.8.8ZM797.3,559h-6.1c-.4,0-.8-.3-.8-.8s.3-.8.8-.8h6.1c.4,0,.8.3.8.8s-.3.8-.8.8ZM785,559h-6.1c-.4,0-.8-.3-.8-.8s.3-.8.8-.8h6.1c.4,0,.8.3.8.8s-.3.8-.8.8ZM772.8,559h-6.1c-.4,0-.8-.3-.8-.8s.3-.8.8-.8h6.1c.4,0,.8.3.8.8s-.3.8-.8.8ZM760.6,559h-6.1c-.4,0-.8-.3-.8-.8s.3-.8.8-.8h6.1c.4,0,.8.3.8.8s-.3.8-.8.8ZM748.3,559h-6.1c-.4,0-.8-.3-.8-.8s.3-.8.8-.8h6.1c.4,0,.8.3.8.8s-.3.8-.8.8ZM736.1,559h-6.1c-.4,0-.8-.3-.8-.8s.3-.8.8-.8h6.1c.4,0,.8.3.8.8s-.3.8-.8.8ZM723.8,559h-6.1c-.4,0-.8-.3-.8-.8s.3-.8.8-.8h6.1c.4,0,.8.3.8.8s-.3.8-.8.8ZM711.6,559h-6.1c-.4,0-.8-.3-.8-.8s.3-.8.8-.8h6.1c.4,0,.8.3.8.8s-.3.8-.8.8ZM699.4,559h-6.1c-.4,0-.8-.3-.8-.8s.3-.8.8-.8h6.1c.4,0,.8.3.8.8s-.3.8-.8.8ZM687.1,559h-6.1c-.4,0-.8-.3-.8-.8s.3-.8.8-.8h6.1c.4,0,.8.3.8.8s-.3.8-.8.8ZM674.9,559h-6.1c-.4,0-.8-.3-.8-.8s.3-.8.8-.8h6.1c.4,0,.8.3.8.8s-.3.8-.8.8ZM662.7,559h-6.1c-.4,0-.8-.3-.8-.8s.3-.8.8-.8h6.1c.4,0,.8.3.8.8s-.3.8-.8.8ZM650.4,559h-6.1c-.4,0-.8-.3-.8-.8s.3-.8.8-.8h6.1c.4,0,.8.3.8.8s-.3.8-.8.8ZM638.2,559h-6.1c-.4,0-.8-.3-.8-.8s.3-.8.8-.8h6.1c.4,0,.8.3.8.8s-.3.8-.8.8ZM625.9,559h-6.1c-.4,0-.8-.3-.8-.8s.3-.8.8-.8h6.1c.4,0,.8.3.8.8s-.3.8-.8.8ZM613.7,559h-6.1c-.4,0-.8-.3-.8-.8s.3-.8.8-.8h6.1c.4,0,.8.3.8.8s-.3.8-.8.8ZM601.5,559h-6.1c-.4,0-.8-.3-.8-.8s.3-.8.8-.8h6.1c.4,0,.8.3.8.8s-.3.8-.8.8ZM589.2,559h-6.1c-.4,0-.8-.3-.8-.8s.3-.8.8-.8h6.1c.4,0,.8.3.8.8s-.3.8-.8.8ZM577,559h-6.1c-.4,0-.8-.3-.8-.8s.3-.8.8-.8h6.1c.4,0,.8.3.8.8s-.3.8-.8.8ZM564.7,559h-6.1c-.4,0-.8-.3-.8-.8s.3-.8.8-.8h6.1c.4,0,.8.3.8.8s-.3.8-.8.8ZM552.5,559h-6.1c-.4,0-.8-.3-.8-.8s.3-.8.8-.8h6.1c.4,0,.8.3.8.8s-.3.8-.8.8ZM540.2,559h-6.1c-.4,0-.8-.3-.8-.8s.3-.8.8-.8h6.1c.4,0,.8.3.8.8s-.3.8-.8.8ZM528,559h-6.1c-.4,0-.8-.3-.8-.8s.3-.8.8-.8h6.1c.4,0,.8.3.8.8s-.3.8-.8.8ZM515.8,559h-6.1c-.4,0-.8-.3-.8-.8s.3-.8.8-.8h6.1c.4,0,.8.3.8.8s-.3.8-.8.8ZM503.5,559h-6.1c-.4,0-.8-.3-.8-.8s.3-.8.8-.8h6.1c.4,0,.8.3.8.8s-.3.8-.8.8ZM491.3,559h-6.1c-.4,0-.8-.3-.8-.8s.3-.8.8-.8h6.1c.4,0,.8.3.8.8s-.3.8-.8.8ZM479,559h-6.1c-.4,0-.8-.3-.8-.8s.3-.8.8-.8h6.1c.4,0,.8.3.8.8s-.3.8-.8.8ZM466.8,559h-6.1c-.4,0-.8-.3-.8-.8s.3-.8.8-.8h6.1c.4,0,.8.3.8.8s-.3.8-.8.8ZM454.6,559h-6.1c-.4,0-.8-.3-.8-.8s.3-.8.8-.8h6.1c.4,0,.8.3.8.8s-.3.8-.8.8ZM442.3,559h-6.1c-.4,0-.8-.3-.8-.8s.3-.8.8-.8h6.1c.4,0,.8.3.8.8s-.3.8-.8.8ZM430.1,559h-6.1c-.4,0-.8-.3-.8-.8s.3-.8.8-.8h6.1c.4,0,.8.3.8.8s-.3.8-.8.8ZM417.8,559h-6.1c-.4,0-.8-.3-.8-.8s.3-.8.8-.8h6.1c.4,0,.8.3.8.8s-.3.8-.8.8ZM405.6,559h-6.1c-.4,0-.8-.3-.8-.8s.3-.8.8-.8h6.1c.4,0,.8.3.8.8s-.3.8-.8.8ZM393.4,559h-6.1c-.4,0-.8-.3-.8-.8s.3-.8.8-.8h6.1c.4,0,.8.3.8.8s-.3.8-.8.8ZM381.1,559h-6.1c-.4,0-.8-.3-.8-.8s.3-.8.8-.8h6.1c.4,0,.8.3.8.8s-.3.8-.8.8ZM368.9,559h-6.1c-.4,0-.8-.3-.8-.8s.3-.8.8-.8h6.1c.4,0,.8.3.8.8s-.3.8-.8.8ZM356.6,559h-6.1c-.4,0-.8-.3-.8-.8s.3-.8.8-.8h6.1c.4,0,.8.3.8.8s-.3.8-.8.8ZM344.4,559h-6.1c-.4,0-.8-.3-.8-.8s.3-.8.8-.8h6.1c.4,0,.8.3.8.8s-.3.8-.8.8ZM332.2,559h-6.1c-.4,0-.8-.3-.8-.8s.3-.8.8-.8h6.1c.4,0,.8.3.8.8s-.3.8-.8.8ZM319.9,559h-6.1c-.4,0-.8-.3-.8-.8s.3-.8.8-.8h6.1c.4,0,.8.3.8.8s-.3.8-.8.8ZM307.7,559h-6.1c-.4,0-.8-.3-.8-.8s.3-.8.8-.8h6.1c.4,0,.8.3.8.8s-.3.8-.8.8ZM295.4,559h-6.1c-.4,0-.8-.3-.8-.8s.3-.8.8-.8h6.1c.4,0,.8.3.8.8s-.3.8-.8.8ZM283.2,559h-6.1c-.4,0-.8-.3-.8-.8s.3-.8.8-.8h6.1c.4,0,.8.3.8.8s-.3.8-.8.8ZM271,559h-6.1c-.4,0-.8-.3-.8-.8s.3-.8.8-.8h6.1c.4,0,.8.3.8.8s-.3.8-.8.8ZM258.7,559h-6.1c-.4,0-.8-.3-.8-.8s.3-.8.8-.8h6.1c.4,0,.8.3.8.8s-.3.8-.8.8ZM246.5,559h-6.1c-.4,0-.8-.3-.8-.8s.3-.8.8-.8h6.1c.4,0,.8.3.8.8s-.3.8-.8.8ZM234.2,559h-6.1c-.4,0-.8-.3-.8-.8s.3-.8.8-.8h6.1c.4,0,.8.3.8.8s-.3.8-.8.8ZM222,559h-6.1c-.4,0-.8-.3-.8-.8s.3-.8.8-.8h6.1c.4,0,.8.3.8.8s-.3.8-.8.8ZM209.8,559h-6.1c-.4,0-.8-.3-.8-.8s.3-.8.8-.8h6.1c.4,0,.8.3.8.8s-.3.8-.8.8ZM197.5,559h-6.1c-.4,0-.8-.3-.8-.8s.3-.8.8-.8h6.1c.4,0,.8.3.8.8s-.3.8-.8.8ZM185.3,559h-6.1c-.4,0-.8-.3-.8-.8s.3-.8.8-.8h6.1c.4,0,.8.3.8.8s-.3.8-.8.8ZM173,559h-6.1c-.4,0-.8-.3-.8-.8s.3-.8.8-.8h6.1c.4,0,.8.3.8.8s-.3.8-.8.8ZM160.8,559h-6.1c-.4,0-.8-.3-.8-.8s.3-.8.8-.8h6.1c.4,0,.8.3.8.8s-.3.8-.8.8ZM148.6,559h-6.1c-.4,0-.8-.3-.8-.8s.3-.8.8-.8h6.1c.4,0,.8.3.8.8s-.3.8-.8.8Z"/>
      <path class="st3" d="M883,744.9h-6.1c-.4,0-.8-.3-.8-.8s.3-.8.8-.8h6.1c.4,0,.8.3.8.8s-.3.8-.8.8ZM870.7,744.9h-6.1c-.4,0-.8-.3-.8-.8s.3-.8.8-.8h6.1c.4,0,.8.3.8.8s-.3.8-.8.8ZM858.5,744.9h-6.1c-.4,0-.8-.3-.8-.8s.3-.8.8-.8h6.1c.4,0,.8.3.8.8s-.3.8-.8.8ZM846.3,744.9h-6.1c-.4,0-.8-.3-.8-.8s.3-.8.8-.8h6.1c.4,0,.8.3.8.8s-.3.8-.8.8ZM834,744.9h-6.1c-.4,0-.8-.3-.8-.8s.3-.8.8-.8h6.1c.4,0,.8.3.8.8s-.3.8-.8.8ZM821.8,744.9h-6.1c-.4,0-.8-.3-.8-.8s.3-.8.8-.8h6.1c.4,0,.8.3.8.8s-.3.8-.8.8ZM809.5,744.9h-6.1c-.4,0-.8-.3-.8-.8s.3-.8.8-.8h6.1c.4,0,.8.3.8.8s-.3.8-.8.8ZM797.3,744.9h-6.1c-.4,0-.8-.3-.8-.8s.3-.8.8-.8h6.1c.4,0,.8.3.8.8s-.3.8-.8.8ZM785,744.9h-6.1c-.4,0-.8-.3-.8-.8s.3-.8.8-.8h6.1c.4,0,.8.3.8.8s-.3.8-.8.8ZM772.8,744.9h-6.1c-.4,0-.8-.3-.8-.8s.3-.8.8-.8h6.1c.4,0,.8.3.8.8s-.3.8-.8.8ZM760.6,744.9h-6.1c-.4,0-.8-.3-.8-.8s.3-.8.8-.8h6.1c.4,0,.8.3.8.8s-.3.8-.8.8ZM748.3,744.9h-6.1c-.4,0-.8-.3-.8-.8s.3-.8.8-.8h6.1c.4,0,.8.3.8.8s-.3.8-.8.8ZM736.1,744.9h-6.1c-.4,0-.8-.3-.8-.8s.3-.8.8-.8h6.1c.4,0,.8.3.8.8s-.3.8-.8.8ZM723.8,744.9h-6.1c-.4,0-.8-.3-.8-.8s.3-.8.8-.8h6.1c.4,0,.8.3.8.8s-.3.8-.8.8ZM711.6,744.9h-6.1c-.4,0-.8-.3-.8-.8s.3-.8.8-.8h6.1c.4,0,.8.3.8.8s-.3.8-.8.8ZM699.4,744.9h-6.1c-.4,0-.8-.3-.8-.8s.3-.8.8-.8h6.1c.4,0,.8.3.8.8s-.3.8-.8.8ZM687.1,744.9h-6.1c-.4,0-.8-.3-.8-.8s.3-.8.8-.8h6.1c.4,0,.8.3.8.8s-.3.8-.8.8ZM674.9,744.9h-6.1c-.4,0-.8-.3-.8-.8s.3-.8.8-.8h6.1c.4,0,.8.3.8.8s-.3.8-.8.8ZM662.7,744.9h-6.1c-.4,0-.8-.3-.8-.8s.3-.8.8-.8h6.1c.4,0,.8.3.8.8s-.3.8-.8.8ZM650.4,744.9h-6.1c-.4,0-.8-.3-.8-.8s.3-.8.8-.8h6.1c.4,0,.8.3.8.8s-.3.8-.8.8ZM638.2,744.9h-6.1c-.4,0-.8-.3-.8-.8s.3-.8.8-.8h6.1c.4,0,.8.3.8.8s-.3.8-.8.8ZM625.9,744.9h-6.1c-.4,0-.8-.3-.8-.8s.3-.8.8-.8h6.1c.4,0,.8.3.8.8s-.3.8-.8.8ZM613.7,744.9h-6.1c-.4,0-.8-.3-.8-.8s.3-.8.8-.8h6.1c.4,0,.8.3.8.8s-.3.8-.8.8ZM601.5,744.9h-6.1c-.4,0-.8-.3-.8-.8s.3-.8.8-.8h6.1c.4,0,.8.3.8.8s-.3.8-.8.8ZM589.2,744.9h-6.1c-.4,0-.8-.3-.8-.8s.3-.8.8-.8h6.1c.4,0,.8.3.8.8s-.3.8-.8.8ZM577,744.9h-6.1c-.4,0-.8-.3-.8-.8s.3-.8.8-.8h6.1c.4,0,.8.3.8.8s-.3.8-.8.8ZM564.7,744.9h-6.1c-.4,0-.8-.3-.8-.8s.3-.8.8-.8h6.1c.4,0,.8.3.8.8s-.3.8-.8.8ZM552.5,744.9h-6.1c-.4,0-.8-.3-.8-.8s.3-.8.8-.8h6.1c.4,0,.8.3.8.8s-.3.8-.8.8ZM540.2,744.9h-6.1c-.4,0-.8-.3-.8-.8s.3-.8.8-.8h6.1c.4,0,.8.3.8.8s-.3.8-.8.8ZM528,744.9h-6.1c-.4,0-.8-.3-.8-.8s.3-.8.8-.8h6.1c.4,0,.8.3.8.8s-.3.8-.8.8ZM515.8,744.9h-6.1c-.4,0-.8-.3-.8-.8s.3-.8.8-.8h6.1c.4,0,.8.3.8.8s-.3.8-.8.8ZM503.5,744.9h-6.1c-.4,0-.8-.3-.8-.8s.3-.8.8-.8h6.1c.4,0,.8.3.8.8s-.3.8-.8.8ZM491.3,744.9h-6.1c-.4,0-.8-.3-.8-.8s.3-.8.8-.8h6.1c.4,0,.8.3.8.8s-.3.8-.8.8ZM479,744.9h-6.1c-.4,0-.8-.3-.8-.8s.3-.8.8-.8h6.1c.4,0,.8.3.8.8s-.3.8-.8.8ZM466.8,744.9h-6.1c-.4,0-.8-.3-.8-.8s.3-.8.8-.8h6.1c.4,0,.8.3.8.8s-.3.8-.8.8ZM454.6,744.9h-6.1c-.4,0-.8-.3-.8-.8s.3-.8.8-.8h6.1c.4,0,.8.3.8.8s-.3.8-.8.8ZM442.3,744.9h-6.1c-.4,0-.8-.3-.8-.8s.3-.8.8-.8h6.1c.4,0,.8.3.8.8s-.3.8-.8.8ZM430.1,744.9h-6.1c-.4,0-.8-.3-.8-.8s.3-.8.8-.8h6.1c.4,0,.8.3.8.8s-.3.8-.8.8ZM417.8,744.9h-6.1c-.4,0-.8-.3-.8-.8s.3-.8.8-.8h6.1c.4,0,.8.3.8.8s-.3.8-.8.8ZM405.6,744.9h-6.1c-.4,0-.8-.3-.8-.8s.3-.8.8-.8h6.1c.4,0,.8.3.8.8s-.3.8-.8.8ZM393.4,744.9h-6.1c-.4,0-.8-.3-.8-.8s.3-.8.8-.8h6.1c.4,0,.8.3.8.8s-.3.8-.8.8ZM381.1,744.9h-6.1c-.4,0-.8-.3-.8-.8s.3-.8.8-.8h6.1c.4,0,.8.3.8.8s-.3.8-.8.8ZM368.9,744.9h-6.1c-.4,0-.8-.3-.8-.8s.3-.8.8-.8h6.1c.4,0,.8.3.8.8s-.3.8-.8.8ZM356.6,744.9h-6.1c-.4,0-.8-.3-.8-.8s.3-.8.8-.8h6.1c.4,0,.8.3.8.8s-.3.8-.8.8ZM344.4,744.9h-6.1c-.4,0-.8-.3-.8-.8s.3-.8.8-.8h6.1c.4,0,.8.3.8.8s-.3.8-.8.8ZM332.2,744.9h-6.1c-.4,0-.8-.3-.8-.8s.3-.8.8-.8h6.1c.4,0,.8.3.8.8s-.3.8-.8.8ZM319.9,744.9h-6.1c-.4,0-.8-.3-.8-.8s.3-.8.8-.8h6.1c.4,0,.8.3.8.8s-.3.8-.8.8ZM307.7,744.9h-6.1c-.4,0-.8-.3-.8-.8s.3-.8.8-.8h6.1c.4,0,.8.3.8.8s-.3.8-.8.8ZM295.4,744.9h-6.1c-.4,0-.8-.3-.8-.8s.3-.8.8-.8h6.1c.4,0,.8.3.8.8s-.3.8-.8.8ZM283.2,744.9h-6.1c-.4,0-.8-.3-.8-.8s.3-.8.8-.8h6.1c.4,0,.8.3.8.8s-.3.8-.8.8ZM271,744.9h-6.1c-.4,0-.8-.3-.8-.8s.3-.8.8-.8h6.1c.4,0,.8.3.8.8s-.3.8-.8.8ZM258.7,744.9h-6.1c-.4,0-.8-.3-.8-.8s.3-.8.8-.8h6.1c.4,0,.8.3.8.8s-.3.8-.8.8ZM246.5,744.9h-6.1c-.4,0-.8-.3-.8-.8s.3-.8.8-.8h6.1c.4,0,.8.3.8.8s-.3.8-.8.8ZM234.2,744.9h-6.1c-.4,0-.8-.3-.8-.8s.3-.8.8-.8h6.1c.4,0,.8.3.8.8s-.3.8-.8.8ZM222,744.9h-6.1c-.4,0-.8-.3-.8-.8s.3-.8.8-.8h6.1c.4,0,.8.3.8.8s-.3.8-.8.8ZM209.8,744.9h-6.1c-.4,0-.8-.3-.8-.8s.3-.8.8-.8h6.1c.4,0,.8.3.8.8s-.3.8-.8.8ZM197.5,744.9h-6.1c-.4,0-.8-.3-.8-.8s.3-.8.8-.8h6.1c.4,0,.8.3.8.8s-.3.8-.8.8ZM185.3,744.9h-6.1c-.4,0-.8-.3-.8-.8s.3-.8.8-.8h6.1c.4,0,.8.3.8.8s-.3.8-.8.8ZM173,744.9h-6.1c-.4,0-.8-.3-.8-.8s.3-.8.8-.8h6.1c.4,0,.8.3.8.8s-.3.8-.8.8ZM160.8,744.9h-6.1c-.4,0-.8-.3-.8-.8s.3-.8.8-.8h6.1c.4,0,.8.3.8.8s-.3.8-.8.8ZM148.6,744.9h-6.1c-.4,0-.8-.3-.8-.8s.3-.8.8-.8h6.1c.4,0,.8.3.8.8s-.3.8-.8.8Z"/>
      <path class="st3" d="M906.9,721.8c-.4,0-.8-.3-.8-.8v-6.1c0-.4.3-.8.8-.8s.8.3.8.8v6.1c0,.4-.3.8-.8.8ZM906.9,709.6c-.4,0-.8-.3-.8-.8v-6.1c0-.4.3-.8.8-.8s.8.3.8.8v6.1c0,.4-.3.8-.8.8ZM906.9,697.3c-.4,0-.8-.3-.8-.8v-6.1c0-.4.3-.8.8-.8s.8.3.8.8v6.1c0,.4-.3.8-.8.8ZM906.9,685.1c-.4,0-.8-.3-.8-.8v-6.1c0-.4.3-.8.8-.8s.8.3.8.8v6.1c0,.4-.3.8-.8.8ZM906.9,672.8c-.4,0-.8-.3-.8-.8v-6.1c0-.4.3-.8.8-.8s.8.3.8.8v6.1c0,.4-.3.8-.8.8ZM906.9,660.6c-.4,0-.8-.3-.8-.8v-6.1c0-.4.3-.8.8-.8s.8.3.8.8v6.1c0,.4-.3.8-.8.8ZM906.9,648.4c-.4,0-.8-.3-.8-.8v-6.1c0-.4.3-.8.8-.8s.8.3.8.8v6.1c0,.4-.3.8-.8.8ZM906.9,636.1c-.4,0-.8-.3-.8-.8v-6.1c0-.4.3-.8.8-.8s.8.3.8.8v6.1c0,.4-.3.8-.8.8ZM906.9,623.9c-.4,0-.8-.3-.8-.8v-6.1c0-.4.3-.8.8-.8s.8.3.8.8v6.1c0,.4-.3.8-.8.8ZM906.9,611.7c-.4,0-.8-.3-.8-.8v-6.1c0-.4.3-.8.8-.8s.8.3.8.8v6.1c0,.4-.3.8-.8.8ZM906.9,599.4c-.4,0-.8-.3-.8-.8v-6.1c0-.4.3-.8.8-.8s.8.3.8.8v6.1c0,.4-.3.8-.8.8ZM906.9,587.2c-.4,0-.8-.3-.8-.8v-6.1c0-.4.3-.8.8-.8s.8.3.8.8v6.1c0,.4-.3.8-.8.8Z"/>
      <path class="st3" d="M120.3,721.8c-.4,0-.8-.3-.8-.8v-6.1c0-.4.3-.8.8-.8s.8.3.8.8v6.1c0,.4-.3.8-.8.8ZM120.3,709.6c-.4,0-.8-.3-.8-.8v-6.1c0-.4.3-.8.8-.8s.8.3.8.8v6.1c0,.4-.3.8-.8.8ZM120.3,697.3c-.4,0-.8-.3-.8-.8v-6.1c0-.4.3-.8.8-.8s.8.3.8.8v6.1c0,.4-.3.8-.8.8ZM120.3,685.1c-.4,0-.8-.3-.8-.8v-6.1c0-.4.3-.8.8-.8s.8.3.8.8v6.1c0,.4-.3.8-.8.8ZM120.3,672.8c-.4,0-.8-.3-.8-.8v-6.1c0-.4.3-.8.8-.8s.8.3.8.8v6.1c0,.4-.3.8-.8.8ZM120.3,660.6c-.4,0-.8-.3-.8-.8v-6.1c0-.4.3-.8.8-.8s.8.3.8.8v6.1c0,.4-.3.8-.8.8ZM120.3,648.4c-.4,0-.8-.3-.8-.8v-6.1c0-.4.3-.8.8-.8s.8.3.8.8v6.1c0,.4-.3.8-.8.8ZM120.3,636.1c-.4,0-.8-.3-.8-.8v-6.1c0-.4.3-.8.8-.8s.8.3.8.8v6.1c0,.4-.3.8-.8.8ZM120.3,623.9c-.4,0-.8-.3-.8-.8v-6.1c0-.4.3-.8.8-.8s.8.3.8.8v6.1c0,.4-.3.8-.8.8ZM120.3,611.7c-.4,0-.8-.3-.8-.8v-6.1c0-.4.3-.8.8-.8s.8.3.8.8v6.1c0,.4-.3.8-.8.8ZM120.3,599.4c-.4,0-.8-.3-.8-.8v-6.1c0-.4.3-.8.8-.8s.8.3.8.8v6.1c0,.4-.3.8-.8.8ZM120.3,587.2c-.4,0-.8-.3-.8-.8v-6.1c0-.4.3-.8.8-.8s.8.3.8.8v6.1c0,.4-.3.8-.8.8Z"/>
    </g>
    <g>
      <g>
        <path class="st4" d="M1204.4,592.4l-.8,14.9c6.3,1.7,11,9.5,11,18.8,0,5.4-1.7,10.3-4.3,13.8-.3.5-1.1.2-1.1-.3v-14c0-.7-.5-1.3-1.2-1.3h-.9c-.7,0-1.3.6-1.3,1.3v16c0,.6-.4,1.1-1,1.4h0c-1,.4-2.1-.3-2.1-1.4v-15.9c0-.8-.6-1.4-1.3-1.4h-.6c-.8,0-1.5.7-1.5,1.5v16.1c0,1-1,1.7-2,1.3-.6-.2-.9-.7-.9-1.3v-15.8c0-1-.7-1.8-1.7-1.8-1,0-1.8.8-1.8,1.7v14c0,.6-.8.9-1.2.4-2.8-3.5-4.6-8.6-4.6-14.4,0-8.7,4.2-16,9.9-18.3l-.6-15.2c-13,2.1-22.9,13.3-22.9,26.9,0,25.6,27.2,46.5,27.2,46.5,0,0,27.2-20.9,27.2-46.5s-10.3-25.3-23.7-27h0Z"/>
        <g>
          <path class="st4" d="M1063.2,665.9h0c-12.7,0-23.9-4.8-31.6-13.4-2-2.2-2.8-5.2-2.3-8.1.6-3.1,2.7-5.7,5.7-7.2l.6-.3c3.5-1.7,7.6-1.5,10.9.5,3.1,1.9,4.9,5.2,4.9,8.7,0,9.6,4.3,15.1,11.8,15.1s15.4-5,15.4-11.2-2.3-7-6.3-9.1l-27.9-15.2c-9.2-4.9-14.7-13.1-14.7-22,0-14.6,15.7-26.5,34.9-26.5s22.5,4.8,29.8,13.6c1.9,2.4,2.7,5.4,2.1,8.5-.6,3.1-2.6,5.7-5.3,7.2l-.6.3c-3.2,1.7-6.8,1.6-9.9-.3-3.2-1.9-5-5.3-5-9.1,0-5.7-1.2-9.9-3.8-12.5-1.9-1.9-4.4-2.9-7.4-2.9-8.7,0-15.8,5.6-15.8,12.5s2.7,8.1,7.1,10.4l29.6,16.2c8.9,4.8,14,12,14,19.9,0,13.9-16.3,25.2-36.4,25.2h0Z"/>
          <path class="st4" d="M1169.6,634.3c0,15.3-6.7,31.6-25.2,31.6s-10.9-2.9-14.8-7.9h0c0-.1-.1-.2-.2-.2,0,0-.1-.1-.2-.1,0,0-.2,0-.2,0,0,0-.2,0-.3,0s0,0,0,0,0,0-.2,0c0,0-.2,0-.3,0s-.2,0-.2.1c0,0,0,0-.1,0h0c0,.1-.1.2-.2.3s0,.1-.1.2c0,0,0,.2,0,.2,0,.1,0,.2,0,.3s0,0,0,0v55.9c0,1.8,1.2,3.3,2.8,3.8v4.9h-29.5v-4.9c1.6-.5,2.7-2,2.8-3.8,0,0,0,0,0,0v-98c0-1.8-1.2-3.3-2.8-3.8v-5.1l1.7-.3,25-4.4v6.8s0,0,0,0c0,.1,0,.2,0,.3,0,0,0,.1,0,.2,0,0,0,.1.1.2s.1.1.2.2h0c0,0,.1.1.2.1,0,0,0,0,.1,0,.2,0,.3,0,.5,0s.4,0,.5-.1c0,0,0,0,.1,0,.1,0,.2-.1.3-.2h0c3.8-5,9.4-7.9,14.8-7.9,18.6,0,25.2,16.3,25.2,31.6h0ZM1145.7,634.3c0-11.2-3.6-17.9-9.5-17.9s-8.9,4-8.9,8.9v18c0,4.9,4,8.9,8.9,8.9s9.5-6.7,9.5-17.9h0Z"/>
          <path class="st4" d="M1293.2,612.3c.2,4.3-2.3,9.2-8.2,10.2-3.4.6-6.8-.6-9.2-3.2-1.7-1.9-4.1-2.9-6.6-2.9-4.9,0-8.9,4-8.9,8.9v30.5c0,1.8,1.2,3.3,2.8,3.8v4.9h-29.5v-4.9c1.6-.5,2.7-2,2.8-3.8v-39.2c0-1.8-1.2-3.3-2.8-3.8v-5.1l1-.2,7.8-1.4,17.9-3.2v9.8s0,0,0,.1c0,0,0,.2,0,.2,0,0,0,.2,0,.2,0,0,0,.1.1.2s.1.1.2.2c0,0,0,0,0,0,0,0,0,0,.1,0,0,0,0,0,.1,0,.2,0,.3,0,.5,0s.4,0,.6-.1c0,0,0,0,.1,0,.1,0,.2-.2.3-.3,0,0,0,0,0,0,4.4-6.8,11.3-10.8,19-10.8s1.7,0,2.5.1c5.9.6,8.7,5.2,8.9,9.5h0Z"/>
          <path class="st4" d="M1364.6,659.9v4.7h-17.3c-9.3,0-13.4-6.9-14.8-9.8,0,0,0-.2,0-.2h0s-5.7-13.2-5.7-13.2h0c-.5-1.2-1.6-1.9-2.8-1.9s-1.3,0-2.1.6c0,0,0,0,0,0l-1.5,1.5h0c-.1.1-.2.3-.3.4,0,.2-.1.3-.1.5v13.2c0,1.8,1.1,3.3,2.8,3.8v4.9h-29.5v-4.9c1.6-.6,2.8-2.1,2.8-3.9v-66.8s0,0,0,0c0-1.8-1.2-3.2-2.8-3.8v-5.1l26.7-4.7v57.1c0,0,0,.1,0,.2,0,.1,0,.2,0,.3,0,0,0,.2.2.3,0,0,0,.1,0,.1,0,0,0,0,0,0,.1.1.3.2.4.3.2,0,.3,0,.5,0s.3,0,.5,0c0,0,.2-.1.3-.2,0,0,.1,0,.2,0h0s19.8-19.2,19.8-19.2l.3-.3c1.5-1.6,1.4-2.7,1.1-3.4,0-.2-.4-.7-.9-1v-5h19.5v4.7h-4.7c-1.8,0-4.5,1.2-6.3,2.9l-.2.2s0,0,0,0l-9.2,8.9c0,0,0,.1-.1.2,0,0-.1.1-.2.2h0s0,0,0,.1c0,.1,0,.2,0,.4s0,.2,0,.2,0,.2,0,.2c0,0,0,.2.2.3,0,0,0,0,0,.1h0c0,0,.2.2.3.2,0,0,0,0,0,0,2.6,1.1,4.6,3,5.7,5.6l12,27.5v.2c1,1.9,3.2,3.3,5.2,3.3h0,0Z"/>
          <path class="st4" d="M1169.8,713.4c-.2,3.3-2.2,6.3-5.8,8.5-3.6,2.2-8.4,3.3-13.4,3-5.9-.3-11.4-2.6-14.7-6-1.2-1.3-1.7-3-1.2-4.8.5-1.8,1.9-3,3.7-3.5h.3c1.4-.4,2.8-.1,4,.7,1.2.9,2,2.3,2.1,3.8.3,5.3,3.4,6.6,5.9,6.7,1.7,0,3.3-.3,4.5-1,1.3-.8,2.1-2,2.2-3.3,0-1.6-.9-3.2-2.8-4.1l-13.2-6.5c-5.1-2.5-8-6.5-7.8-10.6.4-6.7,9-11.6,19.2-11,5.5.3,10.5,2.2,13.9,5.1,1.4,1.3,2,3.1,1.5,5-.5,1.9-2,3.3-3.9,3.8h-.4c-1.4.4-2.8.1-3.9-.7-1.2-.9-2-2.2-2.1-3.8-.4-3.9-2.4-6.3-5.3-6.5-3.4-.2-6.2,1.6-6.4,4,0,1.4.7,2.7,2.2,3.6l12.7,6.2c5.5,2.6,8.8,6.9,8.6,11.3h0Z"/>
          <path class="st4" d="M1215,721v3.1h-18.5v-3.1c1-.3,1.7-1.3,1.7-2.4v-19.1c0-3.1-2.5-5.6-5.6-5.6s-5.6,2.5-5.6,5.6v19.1c0,1.1.7,2.1,1.7,2.4v3.1h-18.5v-3.1c.1,0,.2,0,.3-.1.2.2.4.3.6.3.4,0,.8-.4.8-.8v-43.7c0-1.1-.7-2.1-1.7-2.4v-3.2l16.8-3v23.5s0,0,0,0c0,0,0,0,0,.2,0,0,0,0,0,.1,0,0,0,0,0,.1s0,0,.1.1c0,0,0,0,0,0,0,0,0,0,0,0,0,0,0,0,0,0,0,0,.2,0,.3,0s.2,0,.3,0c0,0,0,0,0,0,0,0,.1-.1.2-.2,0,0,0,0,0,0,2.8-4.3,7.1-6.7,11.9-6.7,7.4,0,12.7,4.7,12.7,11.2v22.1c0,1.1.7,2,1.7,2.4h0Z"/>
          <path class="st4" d="M1256.9,721v3.1h-9.8c-2.5,0-4.4-.8-5.6-2.3,0,0,0,0,0,0,0,0,0,0-.1-.1s0,0-.1,0c0,0,0,0-.1,0,0,0,0,0-.2,0s0,0-.2,0h-.2s0,0,0,0c-6.7,3.1-16.2,4.8-21.4,1.5-2.3-1.5-3.5-3.9-3.5-7.1,0-9,15-13.7,23.9-15.7,0,0,0,0,0,0,0,0,0,0,.1,0,0,0,0,0,.1,0,0,0,0,0,.1-.1,0,0,0,0,0-.1,0,0,0,0,0-.1,0,0,0,0,0-.2,0,0,0,0,0,0v-6.3c0-3.2-1.4-4.8-4.1-4.8s-2.5.5-3.2,1.3c-.8.9-1,2.1-.8,3.7,0,.3,0,.6,0,1,0,2.6-1.8,5-4.5,5.9-3.7,1.2-6.6-.8-7.8-3.4-1.2-2.6-.9-6.1,2.5-8.2,3-1.8,8.9-3.2,13.6-3.2,9.4,0,19.1,1.6,19.1,13.2v20.1c0,1.1.7,2.1,1.7,2.4h0ZM1240.2,717.7c0-.2,0-.3,0-.5v-13.7s0,0,0-.2c0,0,0-.1,0-.2,0,0,0,0,0,0,0,0,0-.1-.1-.2,0,0,0,0-.1,0,0,0,0,0-.1,0,0,0-.1,0-.2,0,0,0,0,0,0,0h0s0,0-.2,0-.1,0-.2,0c-2.7,1.2-4.8,2.8-6.2,4.6-1.4,1.8-2.1,4-2.1,6.3s.7,4,2.1,4.9c.8.5,1.8.8,2.9.8s2.6-.3,4-.9c0,0,0,0,0,0,0,0,0,0,.1,0,0,0,0,0,.1,0,0,0,0,0,0-.1,0,0,0,0,0-.1,0,0,0,0,0-.1,0,0,0-.1,0-.2s0,0,0,0h0Z"/>
          <path class="st4" d="M1295.9,691.3c.1,2.7-1.4,5.8-5.1,6.4-2.1.4-4.3-.4-5.7-2-1.1-1.2-2.6-1.8-4.1-1.8-3.1,0-5.6,2.5-5.6,5.6v19.1c0,1.1.7,2.1,1.8,2.4v3.1h-18.5v-3.1c1-.3,1.7-1.3,1.7-2.4v-24.6c0-1.1-.7-2-1.7-2.4v-3.2h.6c0-.1,4.9-1,4.9-1l11.2-2v6.1s0,0,0,0c0,0,0,0,0,.2,0,0,0,0,0,.1,0,0,0,0,0,.1s0,0,.1.1c0,0,0,0,0,0,0,0,0,0,0,0,0,0,0,0,0,0,0,0,.2,0,.3,0s.2,0,.3,0c0,0,0,0,0,0,0,0,.1-.1.2-.2,0,0,0,0,0,0,2.8-4.3,7.1-6.7,11.9-6.7s1.1,0,1.6,0c3.7.3,5.5,3.2,5.6,5.9h0Z"/>
          <path class="st4" d="M1327.7,713.3l3.1,1.7c-4,6.9-11.6,10.8-19.6,9.8-9-1.1-16.2-8.4-17.3-17.4-.7-5.8,1.1-11.4,4.8-15.6,3.7-4.2,9-6.5,14.8-6.5,9.6,0,17.5,5.3,17.5,11.9s-7.8,11.9-17.5,11.9-2.2,0-3.2-.2c0,0,0,0,0,0,0,0-.1,0-.2,0,0,0-.1,0-.2,0,0,0,0,0,0,0,0,0,0,0,0,0,0,0,0,0-.1,0,0,0,0,0-.1.1,0,0,0,0,0,.1,0,0,0,.1,0,.2,0,0,0,0,0,0,0,0,0,0,0,0,0,0,0,.1,0,.2s0,.1,0,.2c0,0,0,0,0,0,2.9,6.9,9.7,6.4,10.5,6.4,2.9,0,5.5-1.1,7.6-3h0ZM1309.4,707.7h0c2.5-.3,10.7-1.8,10.7-10.3h0c0-5.7-1.8-9-5-9.1,0,0,0,0,0,0,0,0-1.8-.1-3.5,1.5-2.4,2.2-3.6,6.4-3.6,12.6s.1,3.2.4,4.6h0c0,0,0,.2,0,.2,0,0,0,0,0,.1,0,0,0,0,.1.1,0,0,0,0,0,0,0,0,0,0,.2,0,0,0,0,0,0,0,0,0,.2,0,.3,0h0Z"/>
        </g>
      </g>
      <path class="st3" d="M1029.3,575.9h-5.3c-.4,0-.7-.3-.7-.7s.3-.7.7-.7h4.7v-1.6c0-.4.3-.7.7-.7s.7.3.7.7v2.3c0,.4-.3.7-.7.7h0ZM1018.6,575.9h-5.3c-.4,0-.7-.3-.7-.7s.3-.7.7-.7h5.3c.4,0,.7.3.7.7s-.3.7-.7.7ZM1010,573.8c-.4,0-.7-.3-.7-.7v-5.3c0-.4.3-.7.7-.7s.7.3.7.7v5.3c0,.4-.3.7-.7.7ZM1029.3,568.3c-.4,0-.7-.3-.7-.7v-5.3c0-.4.3-.7.7-.7s.7.3.7.7v5.3c0,.4-.3.7-.7.7ZM1010,563.1c-.4,0-.7-.3-.7-.7v-5.3c0-.4.3-.7.7-.7s.7.3.7.7v5.3c0,.4-.3.7-.7.7ZM1029.3,557.6c-.4,0-.7-.3-.7-.7v-.3h-3.7c-.4,0-.7-.3-.7-.7s.3-.7.7-.7h4.4c.4,0,.7.3.7.7v.9c0,.4-.3.7-.7.7h0ZM1019.5,556.6h-5.3c-.4,0-.7-.3-.7-.7s.3-.7.7-.7h5.3c.4,0,.7.3.7.7s-.3.7-.7.7Z"/>
      <path class="st3" d="M1029.1,744.9h-5.3c-.4,0-.7-.3-.7-.7s.3-.7.7-.7h4.7v-1.6c0-.4.3-.7.7-.7s.7.3.7.7v2.3c0,.4-.3.7-.7.7h0ZM1018.5,744.9h-5.3c-.4,0-.7-.3-.7-.7s.3-.7.7-.7h5.3c.4,0,.7.3.7.7s-.3.7-.7.7ZM1009.9,742.8c-.4,0-.7-.3-.7-.7v-5.3c0-.4.3-.7.7-.7s.7.3.7.7v5.3c0,.4-.3.7-.7.7ZM1029.1,737.2c-.4,0-.7-.3-.7-.7v-5.3c0-.4.3-.7.7-.7s.7.3.7.7v5.3c0,.4-.3.7-.7.7ZM1009.9,732.1c-.4,0-.7-.3-.7-.7v-5.3c0-.4.3-.7.7-.7s.7.3.7.7v5.3c0,.4-.3.7-.7.7ZM1029.1,726.6c-.4,0-.7-.3-.7-.7v-.3h-3.7c-.4,0-.7-.3-.7-.7s.3-.7.7-.7h4.4c.4,0,.7.3.7.7v.9c0,.4-.3.7-.7.7h0ZM1019.4,725.6h-5.3c-.4,0-.7-.3-.7-.7s.3-.7.7-.7h5.3c.4,0,.7.3.7.7s-.3.7-.7.7Z"/>
      <path class="st3" d="M1383.9,575.9h-5.3c-.4,0-.7-.3-.7-.7s.3-.7.7-.7h4.7v-1.6c0-.4.3-.7.7-.7s.7.3.7.7v2.3c0,.4-.3.7-.7.7h0ZM1373.3,575.9h-5.3c-.4,0-.7-.3-.7-.7s.3-.7.7-.7h5.3c.4,0,.7.3.7.7s-.3.7-.7.7ZM1364.7,573.8c-.4,0-.7-.3-.7-.7v-5.3c0-.4.3-.7.7-.7s.7.3.7.7v5.3c0,.4-.3.7-.7.7ZM1383.9,568.2c-.4,0-.7-.3-.7-.7v-5.3c0-.4.3-.7.7-.7s.7.3.7.7v5.3c0,.4-.3.7-.7.7ZM1364.7,563.1c-.4,0-.7-.3-.7-.7v-5.3c0-.4.3-.7.7-.7s.7.3.7.7v5.3c0,.4-.3.7-.7.7ZM1383.9,557.6c-.4,0-.7-.3-.7-.7v-.3h-3.7c-.4,0-.7-.3-.7-.7s.3-.7.7-.7h4.4c.4,0,.7.3.7.7v.9c0,.4-.3.7-.7.7ZM1374.2,556.6h-5.3c-.4,0-.7-.3-.7-.7s.3-.7.7-.7h5.3c.4,0,.7.3.7.7s-.3.7-.7.7Z"/>
      <path class="st3" d="M1383.8,744.9h-5.3c-.4,0-.7-.3-.7-.7s.3-.7.7-.7h4.7v-1.6c0-.4.3-.7.7-.7s.7.3.7.7v2.3c0,.4-.3.7-.7.7h0ZM1373.2,744.9h-5.3c-.4,0-.7-.3-.7-.7s.3-.7.7-.7h5.3c.4,0,.7.3.7.7s-.3.7-.7.7ZM1364.6,742.8c-.4,0-.7-.3-.7-.7v-5.3c0-.4.3-.7.7-.7s.7.3.7.7v5.3c0,.4-.3.7-.7.7ZM1383.8,737.2c-.4,0-.7-.3-.7-.7v-5.3c0-.4.3-.7.7-.7s.7.3.7.7v5.3c0,.4-.3.7-.7.7ZM1364.6,732.1c-.4,0-.7-.3-.7-.7v-5.3c0-.4.3-.7.7-.7s.7.3.7.7v5.3c0,.4-.3.7-.7.7ZM1383.8,726.6c-.4,0-.7-.3-.7-.7v-.3h-3.7c-.4,0-.7-.3-.7-.7s.3-.7.7-.7h4.4c.4,0,.7.3.7.7v.9c0,.4-.3.7-.7.7h0ZM1374.1,725.6h-5.3c-.4,0-.7-.3-.7-.7s.3-.7.7-.7h5.3c.4,0,.7.3.7.7s-.3.7-.7.7Z"/>
      <path class="st3" d="M1364.6,725.6h-5.3c-.4,0-.7-.3-.7-.7s.3-.7.7-.7h5.3c.4,0,.7.3.7.7s-.3.7-.7.7ZM1353.9,725.6h-5.3c-.4,0-.7-.3-.7-.7s.3-.7.7-.7h5.3c.4,0,.7.3.7.7s-.3.7-.7.7ZM1343.2,725.6h-5.3c-.4,0-.7-.3-.7-.7s.3-.7.7-.7h5.3c.4,0,.7.3.7.7s-.3.7-.7.7ZM1332.5,725.6h-5.3c-.4,0-.7-.3-.7-.7s.3-.7.7-.7h5.3c.4,0,.7.3.7.7s-.3.7-.7.7ZM1321.8,725.6h-5.3c-.4,0-.7-.3-.7-.7s.3-.7.7-.7h5.3c.4,0,.7.3.7.7s-.3.7-.7.7ZM1311.2,725.6h-5.3c-.4,0-.7-.3-.7-.7s.3-.7.7-.7h5.3c.4,0,.7.3.7.7s-.3.7-.7.7ZM1300.5,725.6h-5.3c-.4,0-.7-.3-.7-.7s.3-.7.7-.7h5.3c.4,0,.7.3.7.7s-.3.7-.7.7ZM1289.8,725.6h-5.3c-.4,0-.7-.3-.7-.7s.3-.7.7-.7h5.3c.4,0,.7.3.7.7s-.3.7-.7.7ZM1279.1,725.6h-5.3c-.4,0-.7-.3-.7-.7s.3-.7.7-.7h5.3c.4,0,.7.3.7.7s-.3.7-.7.7ZM1268.4,725.6h-5.3c-.4,0-.7-.3-.7-.7s.3-.7.7-.7h5.3c.4,0,.7.3.7.7s-.3.7-.7.7ZM1257.8,725.6h-5.3c-.4,0-.7-.3-.7-.7s.3-.7.7-.7h5.3c.4,0,.7.3.7.7s-.3.7-.7.7ZM1247.1,725.6h-5.3c-.4,0-.7-.3-.7-.7s.3-.7.7-.7h5.3c.4,0,.7.3.7.7s-.3.7-.7.7ZM1236.4,725.6h-5.3c-.4,0-.7-.3-.7-.7s.3-.7.7-.7h5.3c.4,0,.7.3.7.7s-.3.7-.7.7ZM1225.7,725.6h-5.3c-.4,0-.7-.3-.7-.7s.3-.7.7-.7h5.3c.4,0,.7.3.7.7s-.3.7-.7.7ZM1215.1,725.6h-5.3c-.4,0-.7-.3-.7-.7s.3-.7.7-.7h5.3c.4,0,.7.3.7.7s-.3.7-.7.7ZM1204.4,725.6h-5.3c-.4,0-.7-.3-.7-.7s.3-.7.7-.7h5.3c.4,0,.7.3.7.7s-.3.7-.7.7ZM1193.7,725.6h-5.3c-.4,0-.7-.3-.7-.7s.3-.7.7-.7h5.3c.4,0,.7.3.7.7s-.3.7-.7.7ZM1183,725.6h-5.3c-.4,0-.7-.3-.7-.7s.3-.7.7-.7h5.3c.4,0,.7.3.7.7s-.3.7-.7.7ZM1172.3,725.6h-5.3c-.4,0-.7-.3-.7-.7s.3-.7.7-.7h5.3c.4,0,.7.3.7.7s-.3.7-.7.7ZM1161.7,725.6h-5.3c-.4,0-.7-.3-.7-.7s.3-.7.7-.7h5.3c.4,0,.7.3.7.7s-.3.7-.7.7ZM1151,725.6h-5.3c-.4,0-.7-.3-.7-.7s.3-.7.7-.7h5.3c.4,0,.7.3.7.7s-.3.7-.7.7ZM1140.3,725.6h-5.3c-.4,0-.7-.3-.7-.7s.3-.7.7-.7h5.3c.4,0,.7.3.7.7s-.3.7-.7.7ZM1129.6,725.6h-5.3c-.4,0-.7-.3-.7-.7s.3-.7.7-.7h5.3c.4,0,.7.3.7.7s-.3.7-.7.7ZM1118.9,725.6h-5.3c-.4,0-.7-.3-.7-.7s.3-.7.7-.7h5.3c.4,0,.7.3.7.7s-.3.7-.7.7ZM1108.3,725.6h-5.3c-.4,0-.7-.3-.7-.7s.3-.7.7-.7h5.3c.4,0,.7.3.7.7s-.3.7-.7.7ZM1097.6,725.6h-5.3c-.4,0-.7-.3-.7-.7s.3-.7.7-.7h5.3c.4,0,.7.3.7.7s-.3.7-.7.7ZM1086.9,725.6h-5.3c-.4,0-.7-.3-.7-.7s.3-.7.7-.7h5.3c.4,0,.7.3.7.7s-.3.7-.7.7ZM1076.2,725.6h-5.3c-.4,0-.7-.3-.7-.7s.3-.7.7-.7h5.3c.4,0,.7.3.7.7s-.3.7-.7.7ZM1065.6,725.6h-5.3c-.4,0-.7-.3-.7-.7s.3-.7.7-.7h5.3c.4,0,.7.3.7.7s-.3.7-.7.7ZM1054.9,725.6h-5.3c-.4,0-.7-.3-.7-.7s.3-.7.7-.7h5.3c.4,0,.7.3.7.7s-.3.7-.7.7ZM1044.2,725.6h-5.3c-.4,0-.7-.3-.7-.7s.3-.7.7-.7h5.3c.4,0,.7.3.7.7s-.3.7-.7.7ZM1033.5,725.6h-4.4c-.4,0-.7-.3-.7-.7v-1c0-.4.3-.7.7-.7s.7.3.7.7v.3h3.7c.4,0,.7.3.7.7s-.3.7-.7.7ZM1364.6,721.8c-.4,0-.7-.3-.7-.7v-5.3c0-.4.3-.7.7-.7s.7.3.7.7v5.3c0,.4-.3.7-.7.7ZM1029.1,719.3c-.4,0-.7-.3-.7-.7v-5.3c0-.4.3-.7.7-.7s.7.3.7.7v5.3c0,.4-.3.7-.7.7ZM1364.6,711.1c-.4,0-.7-.3-.7-.7v-5.3c0-.4.3-.7.7-.7s.7.3.7.7v5.3c0,.4-.3.7-.7.7ZM1029.1,708.6c-.4,0-.7-.3-.7-.7v-5.3c0-.4.3-.7.7-.7s.7.3.7.7v5.3c0,.4-.3.7-.7.7ZM1364.6,700.5c-.4,0-.7-.3-.7-.7v-5.3c0-.4.3-.7.7-.7s.7.3.7.7v5.3c0,.4-.3.7-.7.7ZM1029.1,697.9c-.4,0-.7-.3-.7-.7v-5.3c0-.4.3-.7.7-.7s.7.3.7.7v5.3c0,.4-.3.7-.7.7ZM1364.6,689.8c-.4,0-.7-.3-.7-.7v-5.3c0-.4.3-.7.7-.7s.7.3.7.7v5.3c0,.4-.3.7-.7.7ZM1029.1,687.3c-.4,0-.7-.3-.7-.7v-5.3c0-.4.3-.7.7-.7s.7.3.7.7v5.3c0,.4-.3.7-.7.7ZM1364.6,679.1c-.4,0-.7-.3-.7-.7v-5.3c0-.4.3-.7.7-.7s.7.3.7.7v5.3c0,.4-.3.7-.7.7ZM1029.1,676.6c-.4,0-.7-.3-.7-.7v-5.3c0-.4.3-.7.7-.7s.7.3.7.7v5.3c0,.4-.3.7-.7.7ZM1364.6,668.4c-.4,0-.7-.3-.7-.7v-5.3c0-.4.3-.7.7-.7s.7.3.7.7v5.3c0,.4-.3.7-.7.7ZM1029.1,665.9c-.4,0-.7-.3-.7-.7v-5.3c0-.4.3-.7.7-.7s.7.3.7.7v5.3c0,.4-.3.7-.7.7ZM1364.6,657.7c-.4,0-.7-.3-.7-.7v-5.3c0-.4.3-.7.7-.7s.7.3.7.7v5.3c0,.4-.3.7-.7.7ZM1029.1,655.2c-.4,0-.7-.3-.7-.7v-5.3c0-.4.3-.7.7-.7s.7.3.7.7v5.3c0,.4-.3.7-.7.7ZM1364.6,647.1c-.4,0-.7-.3-.7-.7v-5.3c0-.4.3-.7.7-.7s.7.3.7.7v5.3c0,.4-.3.7-.7.7ZM1029.1,644.5c-.4,0-.7-.3-.7-.7v-5.3c0-.4.3-.7.7-.7s.7.3.7.7v5.3c0,.4-.3.7-.7.7ZM1364.6,636.4c-.4,0-.7-.3-.7-.7v-5.3c0-.4.3-.7.7-.7s.7.3.7.7v5.3c0,.4-.3.7-.7.7ZM1029.1,633.9c-.4,0-.7-.3-.7-.7v-5.3c0-.4.3-.7.7-.7s.7.3.7.7v5.3c0,.4-.3.7-.7.7ZM1364.6,625.7c-.4,0-.7-.3-.7-.7v-5.3c0-.4.3-.7.7-.7s.7.3.7.7v5.3c0,.4-.3.7-.7.7ZM1029.1,623.2c-.4,0-.7-.3-.7-.7v-5.3c0-.4.3-.7.7-.7s.7.3.7.7v5.3c0,.4-.3.7-.7.7ZM1364.6,615c-.4,0-.7-.3-.7-.7v-5.3c0-.4.3-.7.7-.7s.7.3.7.7v5.3c0,.4-.3.7-.7.7ZM1029.1,612.5c-.4,0-.7-.3-.7-.7v-5.3c0-.4.3-.7.7-.7s.7.3.7.7v5.3c0,.4-.3.7-.7.7ZM1364.6,604.3c-.4,0-.7-.3-.7-.7v-5.3c0-.4.3-.7.7-.7s.7.3.7.7v5.3c0,.4-.3.7-.7.7ZM1029.1,601.8c-.4,0-.7-.3-.7-.7v-5.3c0-.4.3-.7.7-.7s.7.3.7.7v5.3c0,.4-.3.7-.7.7ZM1364.6,593.7c-.4,0-.7-.3-.7-.7v-5.3c0-.4.3-.7.7-.7s.7.3.7.7v5.3c0,.4-.3.7-.7.7ZM1029.1,591.2c-.4,0-.7-.3-.7-.7v-5.3c0-.4.3-.7.7-.7s.7.3.7.7v5.3c0,.4-.3.7-.7.7ZM1364.6,583c-.4,0-.7-.3-.7-.7v-5.3c0-.4.3-.7.7-.7s.7.3.7.7v5.3c0,.4-.3.7-.7.7ZM1029.1,580.5c-.4,0-.7-.3-.7-.7v-4.6c0-.4.3-.7.7-.7h.8c.4,0,.7.3.7.7s-.3.7-.7.7h-.1v3.9c0,.4-.3.7-.7.7h0ZM1361,575.9h-5.3c-.4,0-.7-.3-.7-.7s.3-.7.7-.7h5.3c.4,0,.7.3.7.7s-.3.7-.7.7ZM1350.3,575.9h-5.3c-.4,0-.7-.3-.7-.7s.3-.7.7-.7h5.3c.4,0,.7.3.7.7s-.3.7-.7.7ZM1339.6,575.9h-5.3c-.4,0-.7-.3-.7-.7s.3-.7.7-.7h5.3c.4,0,.7.3.7.7s-.3.7-.7.7ZM1328.9,575.9h-5.3c-.4,0-.7-.3-.7-.7s.3-.7.7-.7h5.3c.4,0,.7.3.7.7s-.3.7-.7.7ZM1318.3,575.9h-5.3c-.4,0-.7-.3-.7-.7s.3-.7.7-.7h5.3c.4,0,.7.3.7.7s-.3.7-.7.7ZM1307.6,575.9h-5.3c-.4,0-.7-.3-.7-.7s.3-.7.7-.7h5.3c.4,0,.7.3.7.7s-.3.7-.7.7ZM1296.9,575.9h-5.3c-.4,0-.7-.3-.7-.7s.3-.7.7-.7h5.3c.4,0,.7.3.7.7s-.3.7-.7.7ZM1286.2,575.9h-5.3c-.4,0-.7-.3-.7-.7s.3-.7.7-.7h5.3c.4,0,.7.3.7.7s-.3.7-.7.7ZM1275.5,575.9h-5.3c-.4,0-.7-.3-.7-.7s.3-.7.7-.7h5.3c.4,0,.7.3.7.7s-.3.7-.7.7ZM1264.9,575.9h-5.3c-.4,0-.7-.3-.7-.7s.3-.7.7-.7h5.3c.4,0,.7.3.7.7s-.3.7-.7.7ZM1254.2,575.9h-5.3c-.4,0-.7-.3-.7-.7s.3-.7.7-.7h5.3c.4,0,.7.3.7.7s-.3.7-.7.7ZM1243.5,575.9h-5.3c-.4,0-.7-.3-.7-.7s.3-.7.7-.7h5.3c.4,0,.7.3.7.7s-.3.7-.7.7ZM1232.8,575.9h-5.3c-.4,0-.7-.3-.7-.7s.3-.7.7-.7h5.3c.4,0,.7.3.7.7s-.3.7-.7.7ZM1222.1,575.9h-5.3c-.4,0-.7-.3-.7-.7s.3-.7.7-.7h5.3c.4,0,.7.3.7.7s-.3.7-.7.7ZM1211.5,575.9h-5.3c-.4,0-.7-.3-.7-.7s.3-.7.7-.7h5.3c.4,0,.7.3.7.7s-.3.7-.7.7ZM1200.8,575.9h-5.3c-.4,0-.7-.3-.7-.7s.3-.7.7-.7h5.3c.4,0,.7.3.7.7s-.3.7-.7.7ZM1190.1,575.9h-5.3c-.4,0-.7-.3-.7-.7s.3-.7.7-.7h5.3c.4,0,.7.3.7.7s-.3.7-.7.7ZM1179.4,575.9h-5.3c-.4,0-.7-.3-.7-.7s.3-.7.7-.7h5.3c.4,0,.7.3.7.7s-.3.7-.7.7ZM1168.8,575.9h-5.3c-.4,0-.7-.3-.7-.7s.3-.7.7-.7h5.3c.4,0,.7.3.7.7s-.3.7-.7.7ZM1158.1,575.9h-5.3c-.4,0-.7-.3-.7-.7s.3-.7.7-.7h5.3c.4,0,.7.3.7.7s-.3.7-.7.7ZM1147.4,575.9h-5.3c-.4,0-.7-.3-.7-.7s.3-.7.7-.7h5.3c.4,0,.7.3.7.7s-.3.7-.7.7ZM1136.7,575.9h-5.3c-.4,0-.7-.3-.7-.7s.3-.7.7-.7h5.3c.4,0,.7.3.7.7s-.3.7-.7.7ZM1126,575.9h-5.3c-.4,0-.7-.3-.7-.7s.3-.7.7-.7h5.3c.4,0,.7.3.7.7s-.3.7-.7.7ZM1115.3,575.9h-5.3c-.4,0-.7-.3-.7-.7s.3-.7.7-.7h5.3c.4,0,.7.3.7.7s-.3.7-.7.7ZM1104.7,575.9h-5.3c-.4,0-.7-.3-.7-.7s.3-.7.7-.7h5.3c.4,0,.7.3.7.7s-.3.7-.7.7ZM1094,575.9h-5.3c-.4,0-.7-.3-.7-.7s.3-.7.7-.7h5.3c.4,0,.7.3.7.7s-.3.7-.7.7ZM1083.3,575.9h-5.3c-.4,0-.7-.3-.7-.7s.3-.7.7-.7h5.3c.4,0,.7.3.7.7s-.3.7-.7.7ZM1072.6,575.9h-5.3c-.4,0-.7-.3-.7-.7s.3-.7.7-.7h5.3c.4,0,.7.3.7.7s-.3.7-.7.7ZM1061.9,575.9h-5.3c-.4,0-.7-.3-.7-.7s.3-.7.7-.7h5.3c.4,0,.7.3.7.7s-.3.7-.7.7ZM1051.3,575.9h-5.3c-.4,0-.7-.3-.7-.7s.3-.7.7-.7h5.3c.4,0,.7.3.7.7s-.3.7-.7.7ZM1040.6,575.9h-5.3c-.4,0-.7-.3-.7-.7s.3-.7.7-.7h5.3c.4,0,.7.3.7.7s-.3.7-.7.7Z"/>
      <path class="st3" d="M1364.7,556.6h-4.4c-.4,0-.7-.3-.7-.7s.3-.7.7-.7h4.4c.4,0,.7.3.7.7s-.3.7-.7.7ZM1355,556.6h-5.3c-.4,0-.7-.3-.7-.7s.3-.7.7-.7h5.3c.4,0,.7.3.7.7s-.3.7-.7.7ZM1344.3,556.6h-5.3c-.4,0-.7-.3-.7-.7s.3-.7.7-.7h5.3c.4,0,.7.3.7.7s-.3.7-.7.7ZM1333.6,556.6h-5.3c-.4,0-.7-.3-.7-.7s.3-.7.7-.7h5.3c.4,0,.7.3.7.7s-.3.7-.7.7ZM1322.9,556.6h-5.3c-.4,0-.7-.3-.7-.7s.3-.7.7-.7h5.3c.4,0,.7.3.7.7s-.3.7-.7.7ZM1312.3,556.6h-5.3c-.4,0-.7-.3-.7-.7s.3-.7.7-.7h5.3c.4,0,.7.3.7.7s-.3.7-.7.7ZM1301.6,556.6h-5.3c-.4,0-.7-.3-.7-.7s.3-.7.7-.7h5.3c.4,0,.7.3.7.7s-.3.7-.7.7ZM1290.9,556.6h-5.3c-.4,0-.7-.3-.7-.7s.3-.7.7-.7h5.3c.4,0,.7.3.7.7s-.3.7-.7.7ZM1280.2,556.6h-5.3c-.4,0-.7-.3-.7-.7s.3-.7.7-.7h5.3c.4,0,.7.3.7.7s-.3.7-.7.7ZM1269.6,556.6h-5.3c-.4,0-.7-.3-.7-.7s.3-.7.7-.7h5.3c.4,0,.7.3.7.7s-.3.7-.7.7ZM1258.9,556.6h-5.3c-.4,0-.7-.3-.7-.7s.3-.7.7-.7h5.3c.4,0,.7.3.7.7s-.3.7-.7.7ZM1248.2,556.6h-5.3c-.4,0-.7-.3-.7-.7s.3-.7.7-.7h5.3c.4,0,.7.3.7.7s-.3.7-.7.7ZM1237.5,556.6h-5.3c-.4,0-.7-.3-.7-.7s.3-.7.7-.7h5.3c.4,0,.7.3.7.7s-.3.7-.7.7ZM1226.8,556.6h-5.3c-.4,0-.7-.3-.7-.7s.3-.7.7-.7h5.3c.4,0,.7.3.7.7s-.3.7-.7.7ZM1216.2,556.6h-5.3c-.4,0-.7-.3-.7-.7s.3-.7.7-.7h5.3c.4,0,.7.3.7.7s-.3.7-.7.7ZM1205.5,556.6h-5.3c-.4,0-.7-.3-.7-.7s.3-.7.7-.7h5.3c.4,0,.7.3.7.7s-.3.7-.7.7ZM1194.8,556.6h-5.3c-.4,0-.7-.3-.7-.7s.3-.7.7-.7h5.3c.4,0,.7.3.7.7s-.3.7-.7.7ZM1184.1,556.6h-5.3c-.4,0-.7-.3-.7-.7s.3-.7.7-.7h5.3c.4,0,.7.3.7.7s-.3.7-.7.7ZM1173.4,556.6h-5.3c-.4,0-.7-.3-.7-.7s.3-.7.7-.7h5.3c.4,0,.7.3.7.7s-.3.7-.7.7ZM1162.8,556.6h-5.3c-.4,0-.7-.3-.7-.7s.3-.7.7-.7h5.3c.4,0,.7.3.7.7s-.3.7-.7.7ZM1152.1,556.6h-5.3c-.4,0-.7-.3-.7-.7s.3-.7.7-.7h5.3c.4,0,.7.3.7.7s-.3.7-.7.7ZM1141.4,556.6h-5.3c-.4,0-.7-.3-.7-.7s.3-.7.7-.7h5.3c.4,0,.7.3.7.7s-.3.7-.7.7ZM1130.7,556.6h-5.3c-.4,0-.7-.3-.7-.7s.3-.7.7-.7h5.3c.4,0,.7.3.7.7s-.3.7-.7.7ZM1120,556.6h-5.3c-.4,0-.7-.3-.7-.7s.3-.7.7-.7h5.3c.4,0,.7.3.7.7s-.3.7-.7.7ZM1109.4,556.6h-5.3c-.4,0-.7-.3-.7-.7s.3-.7.7-.7h5.3c.4,0,.7.3.7.7s-.3.7-.7.7ZM1098.7,556.6h-5.3c-.4,0-.7-.3-.7-.7s.3-.7.7-.7h5.3c.4,0,.7.3.7.7s-.3.7-.7.7ZM1088,556.6h-5.3c-.4,0-.7-.3-.7-.7s.3-.7.7-.7h5.3c.4,0,.7.3.7.7s-.3.7-.7.7ZM1077.3,556.6h-5.3c-.4,0-.7-.3-.7-.7s.3-.7.7-.7h5.3c.4,0,.7.3.7.7s-.3.7-.7.7ZM1066.6,556.6h-5.3c-.4,0-.7-.3-.7-.7s.3-.7.7-.7h5.3c.4,0,.7.3.7.7s-.3.7-.7.7ZM1056,556.6h-5.3c-.4,0-.7-.3-.7-.7s.3-.7.7-.7h5.3c.4,0,.7.3.7.7s-.3.7-.7.7ZM1045.3,556.6h-5.3c-.4,0-.7-.3-.7-.7s.3-.7.7-.7h5.3c.4,0,.7.3.7.7s-.3.7-.7.7ZM1034.6,556.6h-5.3c-.4,0-.7-.3-.7-.7s.3-.7.7-.7h5.3c.4,0,.7.3.7.7s-.3.7-.7.7Z"/>
      <path class="st3" d="M1383.9,725.6c-.4,0-.7-.3-.7-.7v-.2c0-.4.3-.7.7-.7s.7.3.7.7v.2c0,.4-.3.7-.7.7ZM1383.9,720.1c-.4,0-.7-.3-.7-.7v-5.3c0-.4.3-.7.7-.7s.7.3.7.7v5.3c0,.4-.3.7-.7.7ZM1383.9,709.4c-.4,0-.7-.3-.7-.7v-5.3c0-.4.3-.7.7-.7s.7.3.7.7v5.3c0,.4-.3.7-.7.7ZM1383.9,698.7c-.4,0-.7-.3-.7-.7v-5.3c0-.4.3-.7.7-.7s.7.3.7.7v5.3c0,.4-.3.7-.7.7ZM1383.9,688c-.4,0-.7-.3-.7-.7v-5.3c0-.4.3-.7.7-.7s.7.3.7.7v5.3c0,.4-.3.7-.7.7ZM1383.9,677.4c-.4,0-.7-.3-.7-.7v-5.3c0-.4.3-.7.7-.7s.7.3.7.7v5.3c0,.4-.3.7-.7.7ZM1383.9,666.7c-.4,0-.7-.3-.7-.7v-5.3c0-.4.3-.7.7-.7s.7.3.7.7v5.3c0,.4-.3.7-.7.7ZM1383.9,656c-.4,0-.7-.3-.7-.7v-5.3c0-.4.3-.7.7-.7s.7.3.7.7v5.3c0,.4-.3.7-.7.7ZM1383.9,645.3c-.4,0-.7-.3-.7-.7v-5.3c0-.4.3-.7.7-.7s.7.3.7.7v5.3c0,.4-.3.7-.7.7ZM1383.9,634.6c-.4,0-.7-.3-.7-.7v-5.3c0-.4.3-.7.7-.7s.7.3.7.7v5.3c0,.4-.3.7-.7.7ZM1383.9,624c-.4,0-.7-.3-.7-.7v-5.3c0-.4.3-.7.7-.7s.7.3.7.7v5.3c0,.4-.3.7-.7.7ZM1383.9,613.3c-.4,0-.7-.3-.7-.7v-5.3c0-.4.3-.7.7-.7s.7.3.7.7v5.3c0,.4-.3.7-.7.7ZM1383.9,602.6c-.4,0-.7-.3-.7-.7v-5.3c0-.4.3-.7.7-.7s.7.3.7.7v5.3c0,.4-.3.7-.7.7ZM1383.9,591.9c-.4,0-.7-.3-.7-.7v-5.3c0-.4.3-.7.7-.7s.7.3.7.7v5.3c0,.4-.3.7-.7.7ZM1383.9,581.2c-.4,0-.7-.3-.7-.7v-5.3c0-.4.3-.7.7-.7s.7.3.7.7v5.3c0,.4-.3.7-.7.7Z"/>
      <path class="st3" d="M1364.6,744.9h-4.4c-.4,0-.7-.3-.7-.7s.3-.7.7-.7h4.4c.4,0,.7.3.7.7s-.3.7-.7.7ZM1354.9,744.9h-5.3c-.4,0-.7-.3-.7-.7s.3-.7.7-.7h5.3c.4,0,.7.3.7.7s-.3.7-.7.7ZM1344.2,744.9h-5.3c-.4,0-.7-.3-.7-.7s.3-.7.7-.7h5.3c.4,0,.7.3.7.7s-.3.7-.7.7ZM1333.5,744.9h-5.3c-.4,0-.7-.3-.7-.7s.3-.7.7-.7h5.3c.4,0,.7.3.7.7s-.3.7-.7.7ZM1322.8,744.9h-5.3c-.4,0-.7-.3-.7-.7s.3-.7.7-.7h5.3c.4,0,.7.3.7.7s-.3.7-.7.7ZM1312.2,744.9h-5.3c-.4,0-.7-.3-.7-.7s.3-.7.7-.7h5.3c.4,0,.7.3.7.7s-.3.7-.7.7ZM1301.5,744.9h-5.3c-.4,0-.7-.3-.7-.7s.3-.7.7-.7h5.3c.4,0,.7.3.7.7s-.3.7-.7.7ZM1290.8,744.9h-5.3c-.4,0-.7-.3-.7-.7s.3-.7.7-.7h5.3c.4,0,.7.3.7.7s-.3.7-.7.7ZM1280.1,744.9h-5.3c-.4,0-.7-.3-.7-.7s.3-.7.7-.7h5.3c.4,0,.7.3.7.7s-.3.7-.7.7ZM1269.4,744.9h-5.3c-.4,0-.7-.3-.7-.7s.3-.7.7-.7h5.3c.4,0,.7.3.7.7s-.3.7-.7.7ZM1258.8,744.9h-5.3c-.4,0-.7-.3-.7-.7s.3-.7.7-.7h5.3c.4,0,.7.3.7.7s-.3.7-.7.7ZM1248.1,744.9h-5.3c-.4,0-.7-.3-.7-.7s.3-.7.7-.7h5.3c.4,0,.7.3.7.7s-.3.7-.7.7ZM1237.4,744.9h-5.3c-.4,0-.7-.3-.7-.7s.3-.7.7-.7h5.3c.4,0,.7.3.7.7s-.3.7-.7.7ZM1226.7,744.9h-5.3c-.4,0-.7-.3-.7-.7s.3-.7.7-.7h5.3c.4,0,.7.3.7.7s-.3.7-.7.7ZM1216,744.9h-5.3c-.4,0-.7-.3-.7-.7s.3-.7.7-.7h5.3c.4,0,.7.3.7.7s-.3.7-.7.7ZM1205.3,744.9h-5.3c-.4,0-.7-.3-.7-.7s.3-.7.7-.7h5.3c.4,0,.7.3.7.7s-.3.7-.7.7ZM1194.7,744.9h-5.3c-.4,0-.7-.3-.7-.7s.3-.7.7-.7h5.3c.4,0,.7.3.7.7s-.3.7-.7.7ZM1184,744.9h-5.3c-.4,0-.7-.3-.7-.7s.3-.7.7-.7h5.3c.4,0,.7.3.7.7s-.3.7-.7.7ZM1173.3,744.9h-5.3c-.4,0-.7-.3-.7-.7s.3-.7.7-.7h5.3c.4,0,.7.3.7.7s-.3.7-.7.7ZM1162.6,744.9h-5.3c-.4,0-.7-.3-.7-.7s.3-.7.7-.7h5.3c.4,0,.7.3.7.7s-.3.7-.7.7ZM1152,744.9h-5.3c-.4,0-.7-.3-.7-.7s.3-.7.7-.7h5.3c.4,0,.7.3.7.7s-.3.7-.7.7ZM1141.3,744.9h-5.3c-.4,0-.7-.3-.7-.7s.3-.7.7-.7h5.3c.4,0,.7.3.7.7s-.3.7-.7.7ZM1130.6,744.9h-5.3c-.4,0-.7-.3-.7-.7s.3-.7.7-.7h5.3c.4,0,.7.3.7.7s-.3.7-.7.7ZM1119.9,744.9h-5.3c-.4,0-.7-.3-.7-.7s.3-.7.7-.7h5.3c.4,0,.7.3.7.7s-.3.7-.7.7ZM1109.2,744.9h-5.3c-.4,0-.7-.3-.7-.7s.3-.7.7-.7h5.3c.4,0,.7.3.7.7s-.3.7-.7.7ZM1098.6,744.9h-5.3c-.4,0-.7-.3-.7-.7s.3-.7.7-.7h5.3c.4,0,.7.3.7.7s-.3.7-.7.7ZM1087.9,744.9h-5.3c-.4,0-.7-.3-.7-.7s.3-.7.7-.7h5.3c.4,0,.7.3.7.7s-.3.7-.7.7ZM1077.2,744.9h-5.3c-.4,0-.7-.3-.7-.7s.3-.7.7-.7h5.3c.4,0,.7.3.7.7s-.3.7-.7.7ZM1066.5,744.9h-5.3c-.4,0-.7-.3-.7-.7s.3-.7.7-.7h5.3c.4,0,.7.3.7.7s-.3.7-.7.7ZM1055.8,744.9h-5.3c-.4,0-.7-.3-.7-.7s.3-.7.7-.7h5.3c.4,0,.7.3.7.7s-.3.7-.7.7ZM1045.2,744.9h-5.3c-.4,0-.7-.3-.7-.7s.3-.7.7-.7h5.3c.4,0,.7.3.7.7s-.3.7-.7.7ZM1034.5,744.9h-5.3c-.4,0-.7-.3-.7-.7s.3-.7.7-.7h5.3c.4,0,.7.3.7.7s-.3.7-.7.7Z"/>
      <path class="st3" d="M1010,725.6c-.4,0-.7-.3-.7-.7v-.2c0-.4.3-.7.7-.7s.7.3.7.7v.2c0,.4-.3.7-.7.7ZM1010,720.1c-.4,0-.7-.3-.7-.7v-5.3c0-.4.3-.7.7-.7s.7.3.7.7v5.3c0,.4-.3.7-.7.7ZM1010,709.4c-.4,0-.7-.3-.7-.7v-5.3c0-.4.3-.7.7-.7s.7.3.7.7v5.3c0,.4-.3.7-.7.7ZM1010,698.7c-.4,0-.7-.3-.7-.7v-5.3c0-.4.3-.7.7-.7s.7.3.7.7v5.3c0,.4-.3.7-.7.7ZM1010,688c-.4,0-.7-.3-.7-.7v-5.3c0-.4.3-.7.7-.7s.7.3.7.7v5.3c0,.4-.3.7-.7.7ZM1010,677.4c-.4,0-.7-.3-.7-.7v-5.3c0-.4.3-.7.7-.7s.7.3.7.7v5.3c0,.4-.3.7-.7.7ZM1010,666.7c-.4,0-.7-.3-.7-.7v-5.3c0-.4.3-.7.7-.7s.7.3.7.7v5.3c0,.4-.3.7-.7.7ZM1010,656c-.4,0-.7-.3-.7-.7v-5.3c0-.4.3-.7.7-.7s.7.3.7.7v5.3c0,.4-.3.7-.7.7ZM1010,645.3c-.4,0-.7-.3-.7-.7v-5.3c0-.4.3-.7.7-.7s.7.3.7.7v5.3c0,.4-.3.7-.7.7ZM1010,634.6c-.4,0-.7-.3-.7-.7v-5.3c0-.4.3-.7.7-.7s.7.3.7.7v5.3c0,.4-.3.7-.7.7ZM1010,624c-.4,0-.7-.3-.7-.7v-5.3c0-.4.3-.7.7-.7s.7.3.7.7v5.3c0,.4-.3.7-.7.7ZM1010,613.3c-.4,0-.7-.3-.7-.7v-5.3c0-.4.3-.7.7-.7s.7.3.7.7v5.3c0,.4-.3.7-.7.7ZM1010,602.6c-.4,0-.7-.3-.7-.7v-5.3c0-.4.3-.7.7-.7s.7.3.7.7v5.3c0,.4-.3.7-.7.7ZM1010,591.9c-.4,0-.7-.3-.7-.7v-5.3c0-.4.3-.7.7-.7s.7.3.7.7v5.3c0,.4-.3.7-.7.7ZM1010,581.2c-.4,0-.7-.3-.7-.7v-5.3c0-.4.3-.7.7-.7s.7.3.7.7v5.3c0,.4-.3.7-.7.7Z"/>
    </g>
  </g>
</svg>